<?xml version="1.0" encoding="utf-8"?>
<!-- Generator: Adobe Illustrator 19.1.0, SVG Export Plug-In . SVG Version: 6.00 Build 0)  -->
<svg version="1.1" id="Ebene_1" xmlns="http://www.w3.org/2000/svg" xmlns:xlink="http://www.w3.org/1999/xlink" x="0px" y="0px"
	 viewBox="0 0 1576.1 1432.9" style="enable-background:new 0 0 1576.1 1432.9;" xml:space="preserve">
<style type="text/css">
	.st0{clip-path:url(#SVGID_2_);}
	.st1{clip-path:url(#SVGID_4_);}
	.st2{fill:#1D1D1B;}
	.st3{fill:#FFFFFF;}
</style>
<g>
	<defs>
		<rect id="SVGID_1_" width="1576.1" height="1432.9"/>
	</defs>
	<clipPath id="SVGID_2_">
		<use xlink:href="#SVGID_1_"  style="overflow:visible;"/>
	</clipPath>
	<path class="st0" d="M455.8,1432.2h-40.5c-20.4-142.4-40.8-284.6-61.4-426.5h-2c-4.6,32.6-9.4,65.2-14,97.8
		c-12.5,86.4-25,173-37.2,259.4c-2.8,19.6-6.4,39.5-8.2,59.1c-0.8,9.2-4.3,11-12.7,11c-30.3,0-29.8,0.3-33.6-30.3
		c-9.4-71.9-19.6-143.7-29.3-215.3c-9.7-71.9-19.4-143.7-29-215.3c-4.6-33.1-9.2-66.2-13.8-100.6h49.7
		c16.1,136.3,32.1,273.1,48.2,409.7c0.3,0,0.8,0,1-0.3c19.6-136.3,39-272.6,58.6-409.7h43.1c19.9,140.6,40,281,59.1,416.1
		c15.8-134.8,32.4-275.4,48.9-416.3h49.7C506.5,1058.1,481.3,1244.9,455.8,1432.2"/>
	<path class="st0" d="M881.3,371.2c31.1-124.6,61.4-246.6,92.2-369.4h46.4v558.8H974V181.4c-9.4,35.7-18.3,68.3-27,100.9
		c-19.1,71.6-38,142.9-57.1,214.5c-0.3,0.8-0.3,1.8-0.8,2.3c-2.5,3.3-5.1,6.4-7.6,9.7c-2.5-3.1-6.6-5.9-7.6-9.4
		c-11.5-42-22.7-84.1-33.9-126.4c-16.3-61.4-32.6-122.8-50.4-184v371.7H744V1.5h45.6C819.6,124.1,850.2,246.6,881.3,371.2"/>
	<path class="st0" d="M1155.9,561.3h-45.4V1c13.5,0,26.8-0.5,40.3,0.5c2.8,0.3,6.4,5.9,7.4,9.4c18.9,74.7,37.5,149.6,56.1,224.5
		c10.2,41,20.4,82.3,30.8,123.3c0.8,3.6,2,7.1,3.6,11.2c30.6-123.1,61.2-245.1,91.7-367.9h46.1v559h-45.9V181.9
		c-7.9,28.8-15,54.5-21.9,80.5c-20.9,78.5-41.5,157-62.7,235.2c-1,4.3-5.9,7.6-8.9,11.2c-2.5-3.8-6.1-7.4-7.1-11.5
		c-26.8-99.6-53-199-79.5-298.6c-1-3.6-2.5-6.6-4.6-12.5V561.3z"/>
	<path class="st0" d="M1003.3,1162.9c32.1,89.7,63.7,177.8,95.5,267h-52.5c-13-37.7-26.2-75.7-39.2-113.4
		c-20.4-58.9-40.8-117.7-61.1-176.6c-4.8-14-0.8-19.9,14-19.9h78V914.7H911.9v514.9h-50.7v-559c3.1-0.3,5.9-0.5,8.7-0.5h175.8
		c27.5,0,42.3,14,42.3,41.3c0.5,69.6,0.5,139.1,0,208.9c-0.3,27.8-15,41-45.9,42.5C1029.6,1163.4,1017.3,1162.9,1003.3,1162.9"/>
	<path class="st0" d="M1224.5,1430.1h-49.9V870.6h49.4v241.8c1,0.3,1.8,0.5,2.8,0.8c2-3.8,4.1-7.6,5.9-11.5
		c34.7-73.9,69.3-147.8,103.7-221.9c3.3-7.1,6.9-10.2,15-9.9c14.3,0.8,28.8,0.3,44.8,0.3c-2.5,5.6-4.1,9.9-6.1,14
		c-38.7,81.5-77.5,163.3-116.4,244.6c-4.1,8.7-3.8,15.3,0.3,23.7c42.8,88.2,85.1,176.3,127.4,264.5c2,4.1,3.8,8.4,6.4,14
		c-17.6,0-33.6,0.5-49.4-0.5c-3.6-0.3-7.9-5.3-9.7-9.4c-38-78-75.4-156.2-113.1-234.4c-2.5-5.6-5.4-11-10.7-16.1
		C1224.5,1256.6,1224.5,1342.7,1224.5,1430.1"/>
	<path class="st0" d="M551.3,98.6c-0.5-0.3-1.3-0.5-1.8-0.8c-16,98.1-31.8,196.2-47.9,294.3h97.6
		C583.2,293.5,567.4,195.9,551.3,98.6 M675.4,561.6h-49.7c-6.6-41.3-13.2-82.3-19.9-124.3c-35.7,0-70.6-0.3-105.2,0.5
		c-2.5,0-6.6,5.6-7.1,9.2c-6.4,38-12.2,76.2-18.3,114.7h-48.4C460.1,374,493.2,187.3,526.6,0h49.7
		C609.4,187,642.3,373.5,675.4,561.6"/>
</g>
<polygon points="649.4,913.4 649.4,1122.4 767.9,1122.4 767.9,1167.7 649.7,1167.7 649.7,1386.3 782.4,1386.3 782.4,1429.9 
	599,1429.9 599,871.1 780.1,871.1 780.1,913.4 "/>
<g>
	<defs>
		<rect id="SVGID_3_" width="1576.1" height="1432.9"/>
	</defs>
	<clipPath id="SVGID_4_">
		<use xlink:href="#SVGID_3_"  style="overflow:visible;"/>
	</clipPath>
	<path class="st1" d="M185.2,45.4V2h200.3c-1.8,13.2-2,26.2-5.9,38.5C330.2,196.7,280,352.6,230,508.8c-0.8,2.3-1.3,4.6-2.5,8.7
		h155.4V561H168.4c1.3-11.7,0.5-24.2,4.1-35.4C221.6,371.2,271.6,216.8,321,62.4c1.5-5.1,3.1-10.4,4.8-17.1H185.2z"/>
</g>
<rect y="630.7" class="st2" width="1576.1" height="158.7"/>
<g>
	<path class="st3" d="M261.1,677.1c-8.6,0-15.4,2.9-20.4,8.6c-5,5.7-7.5,13.6-7.5,23.6c0,10.3,2.4,18.2,7.2,23.8
		c4.8,5.6,11.7,8.4,20.6,8.4c5.5,0,11.7-1,18.7-3v8c-5.4,2-12.2,3.1-20.1,3.1c-11.6,0-20.5-3.5-26.8-10.5c-6.3-7-9.4-17-9.4-29.9
		c0-8.1,1.5-15.2,4.5-21.3c3-6.1,7.4-10.8,13.1-14.1c5.7-3.3,12.4-4.9,20.2-4.9c8.2,0,15.4,1.5,21.6,4.5l-3.9,7.8
		C273,678.5,267.1,677.1,261.1,677.1z"/>
	<path class="st3" d="M373.3,709.3c0,12.6-3.2,22.5-9.5,29.6c-6.4,7.2-15.2,10.8-26.5,10.8c-11.6,0-20.5-3.5-26.8-10.6
		c-6.3-7.1-9.4-17.1-9.4-29.9c0-12.8,3.2-22.7,9.5-29.7c6.3-7,15.3-10.6,26.9-10.6c11.3,0,20.1,3.6,26.4,10.7
		C370.2,686.8,373.3,696.7,373.3,709.3z M310.8,709.3c0,10.6,2.3,18.7,6.8,24.2c4.5,5.5,11.1,8.2,19.7,8.2c8.7,0,15.3-2.7,19.7-8.2
		c4.4-5.5,6.7-13.6,6.7-24.2c0-10.6-2.2-18.6-6.6-24c-4.4-5.5-11-8.2-19.6-8.2c-8.7,0-15.3,2.7-19.8,8.2
		C313,690.8,310.8,698.8,310.8,709.3z"/>
	<path class="st3" d="M467.6,748.6h-9L442.8,696c-0.8-2.3-1.6-5.3-2.5-8.8c-0.9-3.5-1.4-5.7-1.5-6.4c-0.8,4.7-2,9.9-3.8,15.5
		l-15.4,52.3h-9l-20.9-78.5h9.7l12.4,48.5c1.7,6.8,3,13,3.8,18.5c1-6.6,2.4-13,4.3-19.2l14.1-47.7h9.7l14.8,48.2
		c1.7,5.6,3.2,11.8,4.4,18.8c0.7-5.1,2-11.3,3.9-18.6l12.4-48.4h9.7L467.6,748.6z"/>
	<path class="st3" d="M577.3,709.3c0,12.6-3.2,22.5-9.5,29.6c-6.4,7.2-15.2,10.8-26.5,10.8c-11.6,0-20.5-3.5-26.8-10.6
		c-6.3-7.1-9.4-17.1-9.4-29.9c0-12.8,3.2-22.7,9.5-29.7c6.3-7,15.3-10.6,26.9-10.6c11.3,0,20.1,3.6,26.4,10.7
		C574.2,686.8,577.3,696.7,577.3,709.3z M514.8,709.3c0,10.6,2.3,18.7,6.8,24.2c4.5,5.5,11.1,8.2,19.7,8.2c8.7,0,15.3-2.7,19.7-8.2
		c4.4-5.5,6.7-13.6,6.7-24.2c0-10.6-2.2-18.6-6.6-24c-4.4-5.5-11-8.2-19.6-8.2c-8.7,0-15.3,2.7-19.8,8.2
		C517,690.8,514.8,698.8,514.8,709.3z"/>
	<path class="st3" d="M612.2,716v32.7h-9.1v-78.5h21.5c9.6,0,16.7,1.8,21.3,5.5c4.6,3.7,6.9,9.2,6.9,16.7c0,10.4-5.3,17.4-15.8,21.1
		l21.3,35.3h-10.8l-19-32.7H612.2z M612.2,708.1h12.5c6.4,0,11.2-1.3,14.2-3.8c3-2.6,4.5-6.4,4.5-11.5c0-5.2-1.5-8.9-4.6-11.2
		c-3.1-2.3-8-3.4-14.7-3.4h-11.9V708.1z"/>
	<path class="st3" d="M735.9,748.6h-10.7l-28.6-38.1l-8.2,7.3v30.8h-9.1v-78.5h9.1V709l35.6-38.9h10.8l-31.6,34.1L735.9,748.6z"/>
	<path class="st3" d="M755,748.6v-78.5h9.1v78.5H755z"/>
	<path class="st3" d="M855.2,748.6h-10.4l-42.9-65.9h-0.4c0.6,7.7,0.9,14.8,0.9,21.3v44.6h-8.4v-78.5h10.3l42.8,65.6h0.4
		c-0.1-1-0.2-4.1-0.5-9.3c-0.3-5.2-0.3-9-0.3-11.3v-45.1h8.5V748.6z"/>
	<path class="st3" d="M919.6,707.5h26.7v38.2c-4.2,1.3-8.4,2.3-12.7,3s-9.3,1-14.9,1c-11.9,0-21.1-3.5-27.8-10.6
		c-6.6-7.1-9.9-17-9.9-29.7c0-8.2,1.6-15.3,4.9-21.5c3.3-6.1,8-10.8,14.2-14.1c6.2-3.2,13.4-4.9,21.6-4.9c8.4,0,16.2,1.5,23.4,4.6
		l-3.5,8.1c-7.1-3-13.9-4.5-20.5-4.5c-9.6,0-17,2.8-22.4,8.5s-8.1,13.6-8.1,23.7c0,10.6,2.6,18.6,7.8,24.1
		c5.2,5.5,12.8,8.2,22.8,8.2c5.4,0,10.8-0.6,16-1.9v-24.2h-17.6V707.5z"/>
	<path class="st3" d="M1054.4,727.7c0,6.9-2.5,12.3-7.5,16.2c-5,3.9-11.8,5.8-20.4,5.8c-9.3,0-16.5-1.2-21.5-3.6v-8.8
		c3.2,1.4,6.7,2.4,10.5,3.2c3.8,0.8,7.6,1.2,11.3,1.2c6.1,0,10.7-1.2,13.8-3.5c3.1-2.3,4.6-5.5,4.6-9.6c0-2.7-0.5-5-1.6-6.7
		c-1.1-1.7-2.9-3.3-5.5-4.8c-2.6-1.5-6.5-3.1-11.7-5c-7.3-2.6-12.5-5.7-15.7-9.3c-3.1-3.6-4.7-8.3-4.7-14c0-6.1,2.3-10.9,6.8-14.4
		c4.5-3.6,10.6-5.4,18-5.4c7.8,0,15,1.4,21.5,4.3l-2.8,7.9c-6.5-2.7-12.8-4.1-18.9-4.1c-4.8,0-8.6,1-11.3,3.1
		c-2.7,2.1-4.1,5-4.1,8.6c0,2.7,0.5,5,1.5,6.7c1,1.7,2.7,3.3,5.1,4.8c2.4,1.5,6,3.1,10.9,4.8c8.2,2.9,13.9,6.1,17,9.5
		C1052.9,718,1054.4,722.4,1054.4,727.7z"/>
	<path class="st3" d="M1128.5,693c0,7.9-2.7,14.1-8.1,18.3c-5.4,4.3-13.2,6.4-23.3,6.4h-9.2v30.9h-9.1v-78.5h20.4
		C1118.7,670.1,1128.5,677.7,1128.5,693z M1087.9,709.9h8.2c8.1,0,13.9-1.3,17.6-3.9c3.6-2.6,5.4-6.8,5.4-12.6
		c0-5.2-1.7-9.1-5.1-11.6c-3.4-2.5-8.7-3.8-15.9-3.8h-10.2V709.9z"/>
	<path class="st3" d="M1202.5,748.6l-9.8-25h-31.5l-9.7,25h-9.2l31-78.8h7.7l30.9,78.8H1202.5z M1189.9,715.4l-9.1-24.3
		c-1.2-3.1-2.4-6.9-3.7-11.3c-0.8,3.4-1.9,7.2-3.4,11.3l-9.2,24.3H1189.9z"/>
	<path class="st3" d="M1264.6,677.1c-8.6,0-15.4,2.9-20.4,8.6c-5,5.7-7.5,13.6-7.5,23.6c0,10.3,2.4,18.2,7.2,23.8
		c4.8,5.6,11.7,8.4,20.6,8.4c5.5,0,11.7-1,18.7-3v8c-5.4,2-12.2,3.1-20.1,3.1c-11.6,0-20.5-3.5-26.8-10.5c-6.3-7-9.4-17-9.4-29.9
		c0-8.1,1.5-15.2,4.5-21.3c3-6.1,7.4-10.8,13.1-14.1c5.7-3.3,12.4-4.9,20.2-4.9c8.2,0,15.4,1.5,21.6,4.5l-3.9,7.8
		C1276.5,678.5,1270.5,677.1,1264.6,677.1z"/>
	<path class="st3" d="M1352.4,748.6h-43.8v-78.5h43.8v8.1h-34.6v25.3h32.5v8.1h-32.5v28.9h34.6V748.6z"/>
</g>
<g>
</g>
<g>
</g>
<g>
</g>
<g>
</g>
<g>
</g>
<g>
</g>
<g>
</g>
<g>
</g>
<g>
</g>
<g>
</g>
<g>
</g>
<g>
</g>
<g>
</g>
<g>
</g>
<g>
</g>
</svg>
