<svg width='200' height='200' fill="#ffffff" xmlns="http://www.w3.org/2000/svg" xmlns:xlink="http://www.w3.org/1999/xlink" version="1.1" x="0px" y="0px" viewBox="0 0 100 100" enable-background="new 0 0 100 100" xml:space="preserve"><path d="M38.121,59.223h-6.114c-0.425,0-0.77,0.345-0.77,0.771c0,0.425,0.345,0.77,0.77,0.77h3.437  c-2.914,1.737-5.613,3.519-6.176,3.893c-0.003,0.002-0.004,0.004-0.006,0.006c-0.04,0.026-0.076,0.057-0.108,0.092  c-0.007,0.009-0.013,0.019-0.02,0.026c-0.009,0.011-0.017,0.021-0.024,0.033c-0.031,0.042-0.056,0.088-0.076,0.136  c-0.001,0.006-0.005,0.012-0.008,0.018c-0.019,0.054-0.028,0.11-0.032,0.168c-0.001,0.014,0,0.027,0,0.041  c0,0.019-0.002,0.035-0.001,0.053l0.266,2.924c0.029,0.315,0.292,0.559,0.61,0.563l0.488,0.006c0.012,0.198,0.043,0.391,0.099,0.578  h-0.579c-0.333,0-0.606,0.262-0.62,0.595l-0.177,4.439c-0.007,0.168,0.055,0.332,0.172,0.454c0.117,0.121,0.278,0.19,0.448,0.19  h33.927c0.333,0,0.606-0.263,0.619-0.596l0.177-4.439c0.007-0.168-0.055-0.332-0.172-0.453c-0.117-0.122-0.279-0.19-0.446-0.19  h-0.695c-0.057-0.064-0.126-0.116-0.204-0.153l0.891,0.013h0.009c0.321,0,0.591-0.248,0.617-0.57l0.266-3.257  c0.001-0.006-0.001-0.012,0-0.018c0.001-0.027,0-0.056-0.002-0.083c-0.001-0.012-0.001-0.023-0.003-0.036  c-0.006-0.038-0.014-0.077-0.026-0.113c-0.001-0.005-0.004-0.009-0.005-0.013c-0.013-0.033-0.027-0.064-0.044-0.095  c-0.006-0.011-0.015-0.021-0.021-0.031c-0.015-0.022-0.031-0.045-0.049-0.065c-0.005-0.005-0.008-0.011-0.012-0.016  c-0.006-0.006-0.012-0.01-0.017-0.015c-0.019-0.019-0.039-0.037-0.06-0.054c-0.011-0.008-0.022-0.017-0.033-0.024  c-0.022-0.015-0.047-0.028-0.072-0.041c-0.011-0.005-0.021-0.012-0.032-0.017c-0.003-0.001-0.006-0.003-0.01-0.005  c-1.016-0.413-6.249-2.534-11.29-4.431c1.361-0.712,2.293-2.135,2.293-3.774V45.165c0-0.426-0.345-0.771-0.771-0.771  c-0.425,0-0.77,0.345-0.77,0.771v11.336c0,1.501-1.221,2.722-2.721,2.722h-0.483c0.341-0.528,0.548-1.16,0.548-1.848  c0-1.013-0.434-1.921-1.114-2.525l0.599-1.19c0.153-0.306,0.03-0.678-0.276-0.832c-0.306-0.154-0.679-0.03-0.833,0.275l-0.564,1.124  c-0.291-0.095-0.598-0.146-0.917-0.146c-1.713,0-3.106,1.478-3.106,3.295c0,0.031,0.003,0.061,0.004,0.092  c-0.801-0.225-1.408-0.355-1.739-0.355C42.257,57.111,40.296,58.027,38.121,59.223z M30.344,73.737l0.126-2.551  c0,0.337,0.269,0.612,0.606,0.62l3.143,0.066c1.424,0.328,3.247,0.502,5.483,0.523c0.085,0.001,0.169,0.001,0.253,0.001  c1.359,0,2.539-0.109,3.535-0.328l3.68,0.079c0.169,0.003,0.331,0.067,0.456,0.182l1.551,1.407H30.344z M31.597,68.737l14.522,0.189  c-0.05,0.16-0.121,0.322-0.227,0.481c-0.542,0.82-2.059,1.791-6.177,1.749c-5.984-0.059-7.559-1.243-7.966-1.943  C31.664,69.067,31.616,68.907,31.597,68.737z M48.459,71.412c-0.346-0.314-0.794-0.494-1.262-0.504l-1-0.021  c0.135-0.109,0.255-0.228,0.369-0.35h9.541c0.559,0.108,1.164,0.187,1.824,0.214c0.114,0.005,0.228,0.007,0.338,0.007  c0.609,0,1.162-0.077,1.661-0.221h2.118l0.007,0.278l-8.158-0.033c-0.9-0.005-1.782,0.317-2.471,0.905l-1.373,1.17L48.459,71.412z   M55.249,69.046l4.94,0.064c-0.574,0.304-1.311,0.439-2.208,0.403C56.824,69.465,55.928,69.276,55.249,69.046z M63.104,71.897  l-0.073,1.84H50.933l1.297-1.106c0.46-0.393,1.046-0.608,1.651-0.608h0.011l8.797,0.036h0.003C62.845,72.059,62.99,72,63.104,71.897  z M63.232,67.91l-32.79-0.428l-0.154-1.688l33.107,0.104L63.232,67.91z M48.004,55.319c0.119,0,0.235,0.014,0.348,0.037l-0.322,0.64  c-0.153,0.306-0.031,0.679,0.276,0.832c0.089,0.046,0.184,0.066,0.278,0.066c0.227,0,0.446-0.124,0.554-0.341l0.268-0.531  c0.288,0.361,0.463,0.834,0.463,1.353c0,1.134-0.837,2.056-1.865,2.056c-1.029,0-1.866-0.922-1.866-2.056  S46.975,55.319,48.004,55.319z M45.227,58.842c0.185,0.393,0.441,0.741,0.75,1.025l-1.385,2.752  c-0.154,0.306-0.031,0.679,0.275,0.833c0.089,0.045,0.185,0.065,0.278,0.065c0.227,0,0.445-0.125,0.554-0.341l1.343-2.67  c0.303,0.105,0.625,0.164,0.961,0.164c0.525,0,1.02-0.141,1.454-0.387c3.411,1.233,7.646,2.872,11.389,4.366l-16.941-0.054  l-12.224-0.038c4.292-2.762,10.102-6.208,11.481-6.208C43.49,58.351,44.216,58.531,45.227,58.842z"/><path d="M89.55,64.457c0.177-1.001-0.292-1.926-1.254-2.474c-0.035-0.021-0.071-0.039-0.107-0.058  c-0.019-0.734-0.389-1.49-1.022-2.046c-0.314-0.276-0.791-0.429-1.342-0.429c-0.746,0-1.795,0.305-2.441,1.142l-0.631-0.468  c-0.337-0.248-0.813-0.179-1.063,0.156l-2.102,2.811c-0.001-0.002-0.001-0.005-0.003-0.007c-0.529-1.157-1.414-1.848-2.365-1.848  c-0.721,0-1.376,0.401-1.755,1.072c-0.191,0.342-0.312,0.705-0.362,1.066c-0.18-0.108-0.387-0.251-0.622-0.439  c-0.54-0.434-1.148-0.662-1.759-0.662c-1.194,0-2.398,0.919-2.398,2.973c0,0.705,0.421,1.315,0.993,1.761l-0.021,0.011  c-0.325,0.165-0.489,0.558-0.389,0.926l1.311,4.773c0.086,0.314,0.341,0.526,0.628,0.559c-0.848,0.473-1.318,1.24-1.307,2.156  c0.017,1.153,0.792,2.276,1.844,2.671c0.37,0.139,0.695,0.207,0.996,0.207c0,0,0,0,0.001,0c0.403,0,0.708-0.122,0.967-0.277  c0.411,0.68,1.241,1.433,2.295,1.433c0.276,0,0.554-0.054,0.823-0.159c0.653-0.255,1.054-0.628,1.224-1.154  c0.514,0.834,1.403,1.331,2.392,1.331c0.985,0,1.915-0.487,2.551-1.338c0.07-0.095,0.129-0.185,0.184-0.274h0.48  c1.487,0,2.843-0.755,3.624-2.021c0.746-1.206,0.836-2.668,0.269-3.954c0.023-0.077,0.048-0.154,0.063-0.231  c0.137-0.695-0.063-1.365-0.561-1.885c-0.322-0.336-0.684-0.64-1.038-0.915c0.023-0.2,0.019-0.408-0.019-0.619  c-0.104-0.597-0.436-1.122-0.926-1.513c0.173-0.06,0.382-0.112,0.636-0.156C88.474,66.384,89.36,65.532,89.55,64.457z   M85.824,60.269c0.347,0,0.64,0.082,0.803,0.226c0.542,0.475,0.821,1.128,0.73,1.705c-0.089,0.556-0.511,1.012-1.221,1.316  c-0.189,0.081-0.375,0.123-0.553,0.123c-0.523,0-0.911-0.354-1.152-0.666l0.316-0.488c0.218-0.335,0.137-0.782-0.186-1.021  l-0.519-0.383C84.486,60.523,85.234,60.269,85.824,60.269z M80.105,68.662c-0.05,0.425-0.326,0.699-0.823,0.814  c-0.15,0.035-0.296,0.053-0.433,0.053c-1.141,0-1.563-1.295-1.63-1.534c0.007-0.124,0.146-0.536,0.46-0.854  c0.401-0.409,0.891-0.472,1.463-0.188C79.738,67.25,80.18,68.032,80.105,68.662z M76.034,71.396l-0.173-0.471  c0.307-0.247,0.688-0.384,1.084-0.384c0.586,0,1.247,0.323,1.401,1.042c0.146,0.68,0.042,1.282-0.293,1.696  c-0.348,0.43-0.929,0.646-1.727,0.646c-0.854,0-1.261-0.662-1.396-0.946c-0.048-0.102-0.083-0.202-0.111-0.301l0.75-0.252  C75.976,72.291,76.188,71.817,76.034,71.396z M77.896,66.059c0.185-0.055,0.365-0.134,0.537-0.234l0.165,0.144  c-0.04-0.002-0.08-0.008-0.12-0.008C78.278,65.96,78.084,65.995,77.896,66.059z M76.176,62.711c0.235-0.417,0.615-0.656,1.043-0.656  c0.623,0,1.229,0.513,1.623,1.371c0.083,0.18,0.093,0.392,0.038,0.611l-0.565,0.756c-0.045,0.061-0.076,0.126-0.101,0.194  c-0.281,0.212-0.604,0.341-0.9,0.341c-0.122,0-0.239-0.021-0.349-0.063c-0.482-0.186-0.821-0.518-0.98-0.96  C75.81,63.818,75.88,63.238,76.176,62.711z M72.145,66.585c-0.549-0.317-1.005-0.804-1.005-1.338c0-1.31,0.621-2.155,1.581-2.155  c0.416,0,0.859,0.171,1.248,0.482c0.419,0.337,0.809,0.58,1.168,0.737c0.021,0.092,0.047,0.182,0.078,0.27  c0.239,0.664,0.756,1.178,1.457,1.447c0.202,0.078,0.419,0.118,0.642,0.118c0.193,0,0.388-0.03,0.58-0.087  c-0.378,0.129-0.721,0.378-0.997,0.738c-0.303,0.396-0.572,1.016-0.473,1.386c0.146,0.548,0.454,1.146,0.926,1.573  c-0.131-0.021-0.266-0.031-0.404-0.031c-0.491,0-0.968,0.143-1.376,0.404l-1.348-3.671c-0.155-0.425-0.616-0.618-1.002-0.422  L72.145,66.585z M75.343,75.652c-0.292,0.428-0.387,0.965-0.289,1.595c-0.209,0.148-0.4,0.245-0.676,0.245  c-0.198,0-0.437-0.052-0.709-0.154c-0.726-0.271-1.303-1.113-1.313-1.917c-0.007-0.494,0.191-1.169,1.174-1.569  c0.175-0.071,0.278-0.253,0.25-0.439l-0.056-0.362l0.322-0.108c0.04,0.13,0.087,0.26,0.147,0.389  c0.419,0.886,1.217,1.414,2.134,1.414c0.151,0,0.295-0.008,0.43-0.02C76.102,74.92,75.634,75.225,75.343,75.652z M78.166,78.546  c-0.174,0.068-0.352,0.103-0.525,0.103c-0.958,0-1.678-0.999-1.76-1.407c-0.098-0.48-0.053-0.851,0.138-1.129  c0.236-0.348,0.727-0.59,1.456-0.721c0.095-0.017,0.187-0.025,0.271-0.025c0.415,0,0.924,0.188,1.177,1.65  C79.09,77.988,78.786,78.304,78.166,78.546z M87.608,75.042c-0.5,0.808-1.364,1.29-2.314,1.29h-0.127  c-0.013-0.064-0.028-0.124-0.047-0.18c-0.127-0.39-0.397-0.724-0.797-1.002c0.329-0.165,0.56-0.494,0.56-0.883v-0.901  c0.077,0.04,0.157,0.082,0.237,0.125c0.428,0.23,0.961,0.518,1.562,0.518c0.261,0,0.516-0.055,0.758-0.162  c0.2-0.089,0.39-0.204,0.568-0.335C88.029,74.041,87.899,74.571,87.608,75.042z M86.827,68.387c0.089,0.512-0.115,0.98-0.561,1.285  c-0.303,0.208-0.601,0.313-0.884,0.313h-0.001c-0.517,0-1.053-0.351-1.593-1.039c-0.176-0.224-0.156-0.642,0.05-1.064  c0.228-0.467,0.717-0.97,1.257-0.97c0.072,0,0.146,0.01,0.217,0.028C86.287,67.194,86.734,67.854,86.827,68.387z M85.845,66.253  c-0.105-0.039-0.213-0.074-0.325-0.104c-0.14-0.036-0.282-0.054-0.424-0.054c-0.787,0-1.569,0.561-1.992,1.429  c-0.352,0.723-0.336,1.443,0.043,1.926c0.702,0.896,1.454,1.352,2.235,1.352h0.001c0.451,0,0.904-0.153,1.346-0.455  c0.268-0.184,0.481-0.409,0.638-0.663c0.256,0.207,0.508,0.429,0.732,0.663c0.317,0.331,0.435,0.721,0.349,1.16  c-0.126,0.644-0.678,1.299-1.34,1.593c-0.139,0.062-0.278,0.092-0.426,0.092c-0.395,0-0.791-0.213-1.174-0.42  c-0.214-0.114-0.42-0.225-0.625-0.298v-0.486c0-0.593-0.537-1.055-1.149-0.988l-2.479,0.267c-0.44,0.047-0.799,0.358-0.896,0.773  l-0.38,1.646c-0.131,0.57,0.272,1.126,0.873,1.202l1.429,0.183c0.143,0.117,0.342,0.226,0.618,0.31  c0.808,0.248,1.307,0.603,1.445,1.026c0.142,0.436-0.122,0.92-0.369,1.251c-0.479,0.641-1.171,1.01-1.896,1.01  c-0.713,0-1.355-0.364-1.717-0.974c-0.171-0.29-0.382-0.534-0.623-0.735c-0.005-0.027-0.008-0.054-0.013-0.081  c-0.1-0.575-0.401-2.328-1.981-2.328c-0.06,0-0.122,0.004-0.185,0.009c0.556-0.189,0.909-0.492,1.128-0.764  c0.493-0.609,0.656-1.455,0.457-2.381c-0.093-0.435-0.311-0.808-0.615-1.092c0.104,0.015,0.209,0.025,0.319,0.025  c0.199,0,0.406-0.025,0.617-0.074c0.832-0.193,1.36-0.745,1.451-1.515c0.039-0.338-0.012-0.691-0.13-1.029  c0.289,0.051,0.597-0.063,0.77-0.33l2.408-3.71c0.457,0.494,1.021,0.768,1.618,0.768c0.289,0,0.583-0.064,0.876-0.189  c0.782-0.336,1.323-0.854,1.573-1.481c0.558,0.376,0.818,0.925,0.712,1.53c-0.108,0.612-0.627,1.301-1.541,1.456  C86.737,65.852,86.238,65.997,85.845,66.253z"/><path d="M96.951,74.403l-13.47-31.028c-0.94-2.167-2.955-3.64-5.262-3.918c0.176-0.712,0.472-1.297,0.764-1.872  c0.387-0.762,0.787-1.55,0.827-2.522c0.03-0.725,0.02-2.648,0.01-4.508c-0.005-0.876-0.01-1.728-0.01-2.409  c0-1.973-3.065-5.086-5.892-7.536c0.923-0.552,1.487-1.307,1.487-2.151v-4.08c0-1.73-2.352-3.087-5.353-3.087  c-3.002,0-5.353,1.356-5.353,3.087v4.08c0,0.845,0.563,1.6,1.486,2.151c-2.825,2.45-5.892,5.563-5.892,7.536  c0,0.682-0.005,1.533-0.009,2.409c-0.01,1.859-0.021,3.783,0.01,4.508c0.039,0.973,0.439,1.761,0.826,2.522  c0.285,0.561,0.572,1.132,0.75,1.819h-8.805c-0.375-1.858-1.233-3.271-2.527-4.044c-1.055-0.63-2.056-0.828-3.146-0.623  c-0.735,0.138-1.433,0.445-2.109,0.744c-0.533,0.235-1.125,0.496-1.781,0.685c0.223-0.939,0.799-1.701,1.719-2.267  c0.313-0.193,0.41-0.604,0.217-0.917c-0.144-0.234-0.421-0.356-0.691-0.307c-0.08,0.016-0.156,0.045-0.227,0.088  c-1.525,0.939-2.134,2.181-2.351,3.231c-0.644-0.828-1.382-1.449-2.203-1.85c-1.568-0.767-3.32-0.661-4.513-0.437  c-1.006,0.188-1.712,0.475-1.789,0.507c-0.31,0.129-0.476,0.469-0.388,0.792c0.018,0.067,0.443,1.591,1.5,3.018  c-0.054,0.055-0.103,0.106-0.149,0.16c-0.315,0.361-0.557,0.772-0.738,1.219h-2.821l0.323-0.71c0.11-0.243,0.057-0.528-0.134-0.715  c-0.191-0.186-0.478-0.231-0.717-0.115c-0.461,0.225-4.532,2.235-5.779,3.768c-0.22,0.271-0.179,0.668,0.091,0.889  c0.271,0.221,0.668,0.181,0.889-0.091c0.62-0.76,2.335-1.812,3.739-2.585L22.278,55.65c-0.019,0.042-0.033,0.087-0.042,0.131  c-0.026,0.123-2.618,12.305-3.419,14.275c-0.362,0.891-0.854,1.479-1.424,1.699c-0.363,0.141-0.753,0.121-1.126-0.058  c-0.313-0.149-0.691-0.016-0.842,0.299s-0.017,0.691,0.298,0.843c0.379,0.181,0.78,0.271,1.179,0.271  c0.321,0,0.642-0.059,0.947-0.177c0.629-0.244,1.511-0.858,2.139-2.402c0.819-2.016,3.238-13.33,3.47-14.42l6.913-15.168h3.176  c-0.053,0.748,0.025,1.563,0.253,2.439c1.316,5.067,4.339,9.095,7.034,9.367c0.491,0.05,0.922,0.037,1.319-0.037  c0.877-0.164,1.366-0.6,1.762-0.951c0.27-0.239,0.449-0.397,0.703-0.458c0.04-0.01,0.079-0.019,0.118-0.025  c0.681-0.128,1.237,0.068,1.881,0.294c0.634,0.224,1.354,0.477,2.17,0.323c2.085-0.392,3.652-4.032,4.224-7.248  c0.237-1.332,0.317-2.575,0.252-3.704h8.782c-0.01,0.397-0.054,0.831-0.148,1.314c-0.319,1.634-0.803,2.888-1.271,4.101  c-0.667,1.732-1.298,3.368-1.298,5.726c0,0.244,0.046,0.477,0.133,0.698c0.647,2.578,4.984,4.448,10.594,4.448  c4.366,0,7.952-1.136,9.637-2.854l0.454,0.944c0.408,0.849,0.352,1.831-0.149,2.628c-0.501,0.796-1.362,1.272-2.304,1.272H60.717  c-0.426,0-0.771,0.345-0.771,0.771c0,0.425,0.345,0.77,0.771,0.77h16.975c1.475,0,2.823-0.745,3.607-1.993s0.872-2.786,0.233-4.114  l-0.892-1.854c0.003-0.01,0.008-0.019,0.01-0.028c0.084-0.214,0.13-0.442,0.13-0.688c0-2.357-0.631-3.993-1.299-5.726  c-0.467-1.213-0.951-2.467-1.271-4.101c-0.092-0.466-0.137-0.886-0.147-1.272c1.757,0.222,3.288,1.35,4.006,3.002l13.47,31.028  c0.681,1.569,0.526,3.359-0.411,4.789c-0.938,1.431-2.52,2.284-4.229,2.284H9.101c-1.71,0-3.292-0.854-4.229-2.284  c-0.938-1.43-1.092-3.22-0.411-4.789l3.399-7.831l3.334,9.526c-0.065-0.121-0.121-0.247-0.156-0.38H8.818  c-0.425,0-0.77,0.345-0.77,0.77s0.344,0.77,0.77,0.77H11.6l0.657,1.88c0.083,0.238,0.301,0.404,0.554,0.422  c0.014,0.001,0.028,0.001,0.042,0.001c0.236,0,0.455-0.133,0.563-0.346l0.992-1.957h4.871c1.909,0,3.598-1.284,4.107-3.124  l8.131-29.377c0.114-0.41-0.126-0.834-0.536-0.947c-0.411-0.115-0.834,0.126-0.947,0.536l-8.131,29.378  c-0.326,1.174-1.404,1.995-2.623,1.995h-4.09l1.052-2.073c0.158-0.312,0.034-0.691-0.278-0.85c-0.31-0.158-0.69-0.033-0.849,0.278  l-1.949,3.839c-0.064,0.015-0.128,0.03-0.196,0.036c-0.047,0.004-0.092,0.004-0.139,0.007L5.05,55.332l1.452-0.985  c0.193-0.132,0.288-0.351,0.273-0.567l3.524,11.537c0.084,0.271,0.334,0.447,0.604,0.447c0.061,0,0.124-0.009,0.185-0.028  c0.334-0.102,0.522-0.454,0.42-0.788L7.032,50.3L27.352,32.4l-1.743,6.39c-0.092,0.336,0.107,0.684,0.444,0.775  c0.338,0.093,0.683-0.106,0.775-0.443l2.297-8.423c0.073-0.27-0.039-0.556-0.276-0.702c-0.236-0.147-0.542-0.123-0.751,0.062  L5.892,49.621c-0.187,0.163-0.259,0.421-0.187,0.658l0.987,3.232c-0.008-0.015-0.014-0.029-0.023-0.043  c-0.195-0.289-0.588-0.364-0.876-0.168L3.938,54.56c-0.237,0.16-0.336,0.461-0.242,0.731l3.414,9.755l-4.063,9.357  C2.16,76.45,2.359,78.785,3.583,80.65c1.114,1.697,2.923,2.77,4.921,2.949c0.365,2.876,2.823,5.109,5.797,5.109h71.395  c2.975,0,5.432-2.233,5.797-5.109c1.998-0.18,3.808-1.252,4.922-2.949C97.64,78.785,97.84,76.45,96.951,74.403z M34.774,35.247  c0.25-0.074,0.564-0.154,0.924-0.222c1-0.188,2.451-0.286,3.686,0.318c1.636,0.799,2.551,2.679,2.908,3.579  c-0.25,0.073-0.564,0.154-0.923,0.222c-1,0.188-2.452,0.285-3.687-0.318C36.046,38.026,35.131,36.146,34.774,35.247z M51.696,44.415  c-0.634,3.564-2.132,5.979-3.157,6.171c-0.466,0.087-0.915-0.07-1.482-0.271c-0.721-0.254-1.537-0.541-2.569-0.347  c-0.059,0.011-0.12,0.023-0.181,0.038c-0.581,0.139-0.952,0.468-1.28,0.76c-0.327,0.291-0.609,0.542-1.123,0.638  c-0.266,0.05-0.572,0.057-0.938,0.02c-2.349-0.238-4.879-4.532-5.876-8.375c-0.446-1.72-0.263-3.06,0.545-3.986  c0.01-0.011,0.021-0.023,0.033-0.036c0.443,0.417,0.923,0.751,1.429,0.999c1.568,0.766,3.32,0.659,4.513,0.436  c1.004-0.188,1.712-0.476,1.791-0.508c0.309-0.129,0.475-0.469,0.386-0.792c-0.01-0.034-0.058-0.206-0.152-0.467  c0.007-0.086-0.002-0.172-0.029-0.253c-0.043-0.132-0.135-0.452-0.18-0.875c0.933-0.22,1.739-0.574,2.399-0.865  c0.661-0.292,1.232-0.543,1.807-0.651c0.769-0.144,1.456-0.003,2.225,0.456C52.022,37.798,52.228,41.438,51.696,44.415z   M70.054,12.481c2.452,0,4.162,0.999,4.162,1.896c0,0.896-1.71,1.896-4.162,1.896c-2.453,0-4.162-0.999-4.162-1.896  C65.892,13.48,67.601,12.481,70.054,12.481z M65.892,18.458c0-0.004,0.001-0.008,0.001-0.011c0-0.001,0-0.001-0.001-0.002v-2.106  c0.974,0.69,2.463,1.125,4.162,1.125s3.188-0.435,4.162-1.126v2.075c-0.002,0.001-0.004,0.001-0.005,0.002  c0,0.014,0.005,0.028,0.005,0.043c0,0.505-0.543,1.042-1.455,1.415c-0.177,0.001-0.353,0.057-0.495,0.173  c-0.626,0.188-1.375,0.308-2.212,0.308c-0.838,0-1.586-0.119-2.212-0.308c-0.144-0.116-0.318-0.172-0.495-0.173  C66.434,19.5,65.892,18.963,65.892,18.458z M67.849,21.276c0.669,0.171,1.413,0.268,2.205,0.268c0.791,0,1.535-0.097,2.205-0.268  c3.307,2.793,5.012,4.789,5.654,5.968c-1.729-1.057-4.806-1.602-7.859-1.602s-6.131,0.545-7.86,1.602  C62.836,26.066,64.54,24.069,67.849,21.276z M77.74,29.252c0,0.604-2.615,2.021-7.687,2.021s-7.687-1.417-7.687-2.021  c0-0.605,2.615-2.022,7.687-2.022S77.74,28.646,77.74,29.252z M79.139,51.042c0.091,0.113,0.009,0.935,0.009,1.066  c0,1.672-3.734,3.536-9.094,3.536s-9.094-1.864-9.094-3.536c0-0.238,0.035-1.615,0.084-1.661c0.199-1.263,0.606-2.334,1.063-3.517  c0.469-1.218,1.001-2.597,1.347-4.367c0.55-2.813-0.262-4.412-0.914-5.697c-0.353-0.693-0.631-1.241-0.657-1.869  c-0.025-0.626-0.019-2.329-0.011-3.953c1.648,1.197,4.929,1.816,8.183,1.816s6.534-0.619,8.182-1.816  c0.009,1.624,0.015,3.327-0.011,3.953c-0.025,0.628-0.304,1.176-0.656,1.869c-0.653,1.285-1.465,2.885-0.915,5.697  c0.347,1.771,0.878,3.15,1.348,4.367C78.526,48.294,78.988,49.51,79.139,51.042z M85.697,87.17H14.302  c-2.113,0-3.873-1.53-4.237-3.54h79.869C89.569,85.64,87.81,87.17,85.697,87.17z"/><path d="M64.503,76.332H28.159c-0.425,0-0.77,0.345-0.77,0.77s0.344,0.77,0.77,0.77h36.344c1.257,0,2.443-0.55,3.254-1.51  c0.812-0.959,1.157-2.221,0.947-3.46l-1.525-9.045c-0.07-0.419-0.467-0.7-0.888-0.631c-0.419,0.07-0.702,0.468-0.631,0.887  l1.526,9.046c0.134,0.791-0.088,1.596-0.605,2.209C66.063,75.979,65.306,76.332,64.503,76.332z"/><path d="M11.568,67.956c-0.167,0.438-0.669,1.957-0.103,3.146c0.264,0.555,0.729,0.953,1.343,1.155  c0.259,0.084,0.513,0.126,0.763,0.126c1.279,0,2.411-1.095,3.117-3.071c0.239-0.669,0.819-2.833,1.554-5.572  c1.084-4.042,2.853-10.636,3.51-12.045c0.476,0.019,0.921-0.112,1.333-0.387c1.591-1.063,2.174-4.049,2.6-6.229  c0.104-0.533,0.194-0.994,0.276-1.288c0.095-0.337-0.102-0.685-0.438-0.779c-0.336-0.094-0.685,0.102-0.779,0.438  c-0.096,0.344-0.19,0.828-0.3,1.388c-0.34,1.739-0.907,4.65-2.061,5.421c-0.242,0.162-0.491,0.209-0.784,0.15  c-0.831-0.169-1.182,0.906-2.278,4.66c-0.726,2.482-1.561,5.597-2.298,8.345c-0.698,2.604-1.302,4.854-1.524,5.474  c-0.281,0.787-1.065,2.573-2.296,2.17c-0.291-0.095-0.48-0.253-0.596-0.497c-0.261-0.548-0.117-1.476,0.143-2.152  c0.225-0.589,0.822-1.893,1.577-3.543c4.011-8.763,5.933-13.456,5.315-14.791c-0.121-0.261-0.331-0.443-0.592-0.518  c-0.171-0.048-0.271-0.134-0.343-0.297c-0.243-0.548-0.289-2.19,2.129-7.026c0.157-0.313,0.029-0.691-0.283-0.848  c-0.313-0.156-0.691-0.029-0.847,0.282c-2.077,4.156-2.762,6.73-2.154,8.104c0.195,0.442,0.525,0.763,0.961,0.937  c0.173,1.595-3.669,9.992-5.335,13.631C12.411,66.009,11.808,67.33,11.568,67.956z"/><path d="M22.016,41.836c-0.333-0.107-0.688,0.077-0.794,0.408l-1.601,5.013c-0.106,0.333,0.077,0.688,0.41,0.794  c0.063,0.021,0.128,0.03,0.192,0.03c0.267,0,0.516-0.171,0.602-0.439l1.601-5.013C22.532,42.297,22.348,41.941,22.016,41.836z"/><path d="M21.968,48.53c0.06,0.019,0.122,0.027,0.182,0.027c0.272,0,0.523-0.177,0.605-0.45l1.461-4.874  c0.101-0.334-0.089-0.687-0.424-0.786c-0.333-0.102-0.686,0.089-0.787,0.424l-1.461,4.873C21.443,48.078,21.634,48.431,21.968,48.53  z"/></svg>