<?xml version="1.0" encoding="UTF-8" standalone="no"?>
<svg
   xmlns:dc="http://purl.org/dc/elements/1.1/"
   xmlns:cc="http://creativecommons.org/ns#"
   xmlns:rdf="http://www.w3.org/1999/02/22-rdf-syntax-ns#"
   xmlns:svg="http://www.w3.org/2000/svg"
   xmlns="http://www.w3.org/2000/svg"
   xmlns:sodipodi="http://sodipodi.sourceforge.net/DTD/sodipodi-0.dtd"
   xmlns:inkscape="http://www.inkscape.org/namespaces/inkscape"
   version="1.1"
   x="0px"
   y="0px"
   viewBox="0 0 200 200"
   xml:space="preserve"
   id="svg2"
   inkscape:version="0.92.2 5c3e80d, 2017-08-06"
   sodipodi:docname="ideas.svg"
   width="200"
   height="200"><metadata
     id="metadata88"><rdf:RDF><cc:Work
         rdf:about=""><dc:format>image/svg+xml</dc:format><dc:type
           rdf:resource="http://purl.org/dc/dcmitype/StillImage" /><dc:title></dc:title></cc:Work></rdf:RDF></metadata><defs
     id="defs86" /><sodipodi:namedview
     pagecolor="#ffffff"
     bordercolor="#666666"
     borderopacity="1"
     objecttolerance="10"
     gridtolerance="10"
     guidetolerance="10"
     inkscape:pageopacity="0"
     inkscape:pageshadow="2"
     inkscape:window-width="1188"
     inkscape:window-height="697"
     id="namedview84"
     showgrid="false"
     inkscape:zoom="1.3882353"
     inkscape:cx="34.000002"
     inkscape:cy="126.95571"
     inkscape:window-x="0"
     inkscape:window-y="0"
     inkscape:window-maximized="0"
     inkscape:current-layer="svg2" /><style
     type="text/css"
     id="style4">
	.st0{fill:#010101;}
</style><g
     id="g6"
     transform="matrix(2.9863893,0,0,2.9863893,-2.3465588,-0.8084236)"
     style="fill:#ffffff"><g
       id="g8"
       style="fill:#ffffff"><path
         class="st0"
         d="m 35.2,14 h -1 c -10.6,0 -17.5,5.8 -20.4,17.2 -0.1,0.3 -0.9,2.8 0.3,4.5 0.3,0.4 0.7,0.8 1.5,1.1 l -5.2,9.4 c -0.2,0.3 -0.2,0.7 0,1 0.2,0.3 0.5,0.5 0.9,0.5 h 4.9 l -0.7,8.2 c 0,1.1 0.4,2.2 1.2,3 1,1 2.4,1.6 3.9,1.6 1,0 2.6,-0.3 4.3,-1.7 V 66 c 0,0.6 0.4,1 1,1 H 45 c 0.6,0 1,-0.4 1,-1 V 56.2 C 47.7,53.8 58.9,36.5 53.2,25.5 47,14 38.1,14 35.2,14 Z M 44,55.4 c -0.1,0.2 -0.2,0.4 -0.2,0.6 v 9 H 26.7 v -9 c 0,-0.4 -0.3,-0.8 -0.7,-1 -0.4,-0.1 -0.9,0 -1.1,0.4 -1.3,1.9 -2.9,3 -4.5,3 -0.9,0 -1.8,-0.4 -2.4,-1 -0.4,-0.5 -0.7,-1 -0.6,-1.5 l 0.8,-9.2 c 0,-0.3 -0.1,-0.6 -0.3,-0.8 -0.2,-0.2 -0.5,-0.3 -0.7,-0.3 H 12.9 L 18,36.4 c 0.2,-0.3 0.2,-0.7 0,-1 -0.2,-0.3 -0.5,-0.5 -0.9,-0.5 H 17 c -0.9,0 -1.2,-0.3 -1.2,-0.4 -0.5,-0.7 -0.2,-2.2 0,-2.7 C 19.8,16 30.6,16 34.2,16 h 1 c 2.6,0 10.5,0 16,10.5 C 56.7,37 44.1,55.2 44,55.4 Z"
         id="path10"
         inkscape:connector-curvature="0"
         style="fill:#ffffff" /></g><g
       id="g12"
       style="fill:#ffffff"><path
         class="st0"
         d="m 31.6,6.1 1.7,-1.7 v 6.7 c 0,0.6 0.4,1 1,1 0.6,0 1,-0.4 1,-1 V 4.4 L 37,6.1 c 0.4,0.4 1,0.4 1.4,0 0.4,-0.4 0.4,-1 0,-1.4 L 35,1.3 v 0 0 c 0,0 0,0 0,0 -0.4,-0.4 -1,-0.4 -1.4,0 l -3.4,3.3 c -0.4,0.4 -0.4,1 0,1.4 0.4,0.4 1,0.5 1.4,0.1 z"
         id="path14"
         inkscape:connector-curvature="0"
         style="fill:#ffffff" /></g><g
       id="g16"
       style="fill:#ffffff"><path
         class="st0"
         d="m 66.7,33.3 -3.4,-3.4 c -0.4,-0.4 -1,-0.4 -1.4,0 -0.4,0.4 -0.4,1 0,1.4 l 1.7,1.7 h -6.8 c -0.6,0 -1,0.4 -1,1 0,0.6 0.4,1 1,1 h 6.7 l -1.6,1.6 c -0.4,0.4 -0.4,1 0,1.4 0.4,0.4 1,0.4 1.4,0 l 3.4,-3.3 c 0,0 0,0 0,0 0,0 0,0 0,0 v 0 c 0,0 0,0 0,0 0.4,-0.4 0.4,-1.1 0,-1.4 z"
         id="path18"
         inkscape:connector-curvature="0"
         style="fill:#ffffff" /></g><g
       id="g20"
       style="fill:#ffffff"><path
         class="st0"
         d="m 4.4,35 h 6.7 c 0.6,0 1,-0.4 1,-1 0,-0.6 -0.4,-1 -1,-1 H 4.4 l 1.7,-1.7 c 0.4,-0.4 0.4,-1 0,-1.4 -0.4,-0.4 -1,-0.4 -1.4,0 l -3.4,3.4 c -0.4,0.4 -0.4,1 0,1.4 0,0 0,0 0,0 v 0 c 0,0 0,0 0,0 0,0 0,0 0,0 L 4.7,38 c 0.4,0.4 1,0.4 1.4,0 0.4,-0.4 0.4,-1 0,-1.4 z"
         id="path22"
         inkscape:connector-curvature="0"
         style="fill:#ffffff" /></g><g
       id="g24"
       style="fill:#ffffff"><path
         class="st0"
         d="M 51.2,18.5 56,13.8 v 2.3 c 0,0.6 0.4,1 1,1 0.6,0 1,-0.4 1,-1 v -4.7 c 0,-0.5 -0.4,-1 -1,-1 h -4.8 c 0,0 0,0 0,0 -0.5,0 -1,0.4 -1,1 0,0.6 0.4,1 1,1 h 2.4 l -4.8,4.8 c -0.4,0.4 -0.4,1 0,1.4 0.3,0.3 1,0.3 1.4,-0.1 z"
         id="path26"
         inkscape:connector-curvature="0"
         style="fill:#ffffff" /></g><g
       id="g28"
       style="fill:#ffffff"><path
         class="st0"
         d="m 11.6,17.1 c 0.6,0 1,-0.4 1,-1 v -2.3 l 4.8,4.7 c 0.4,0.4 1,0.4 1.4,0 0.4,-0.4 0.4,-1 0,-1.4 L 14,12.3 h 2.4 c 0.6,0 1,-0.5 1,-1 0,-0.5 -0.5,-1 -1,-1 0,0 0,0 0,0 h -4.8 c 0,0 0,0 0,0 v 0 c -0.6,0 -1,0.5 -1,1 V 16 c 0,0.7 0.5,1.1 1,1.1 z"
         id="path30"
         inkscape:connector-curvature="0"
         style="fill:#ffffff" /></g><g
       id="g32"
       style="fill:#ffffff"><path
         class="st0"
         d="m 34.4,22.6 c 0.6,0 1,-0.4 1,-1 v -2.5 c 0,-0.6 -0.4,-1 -1,-1 -0.6,0 -1,0.4 -1,1 v 2.5 c 0,0.6 0.5,1 1,1 z"
         id="path34"
         inkscape:connector-curvature="0"
         style="fill:#ffffff" /></g><g
       id="g36"
       style="fill:#ffffff"><path
         class="st0"
         d="m 49.4,33.1 h -2.5 c -0.6,0 -1,0.4 -1,1 0,0.6 0.4,1 1,1 h 2.5 c 0.6,0 1,-0.4 1,-1 0,-0.5 -0.4,-1 -1,-1 z"
         id="path38"
         inkscape:connector-curvature="0"
         style="fill:#ffffff" /></g><g
       id="g40"
       style="fill:#ffffff"><path
         class="st0"
         d="m 22.9,34.1 c 0,-0.6 -0.4,-1 -1,-1 h -2.5 c -0.6,0 -1,0.4 -1,1 0,0.6 0.4,1 1,1 h 2.5 c 0.6,0 1,-0.4 1,-1 z"
         id="path42"
         inkscape:connector-curvature="0"
         style="fill:#ffffff" /></g><g
       id="g44"
       style="fill:#ffffff"><path
         class="st0"
         d="m 43.9,26 1.8,-1.8 c 0.4,-0.4 0.4,-1 0,-1.4 -0.4,-0.4 -1,-0.4 -1.4,0 l -1.8,1.8 c -0.4,0.4 -0.4,1 0,1.4 0.4,0.4 1.1,0.4 1.4,0 z"
         id="path46"
         inkscape:connector-curvature="0"
         style="fill:#ffffff" /></g><g
       id="g48"
       style="fill:#ffffff"><path
         class="st0"
         d="m 24.9,26 c 0.4,0.4 1,0.4 1.4,0 0.4,-0.4 0.4,-1 0,-1.4 l -1.8,-1.8 c -0.4,-0.4 -1,-0.4 -1.4,0 -0.4,0.4 -0.4,1 0,1.4 z"
         id="path50"
         inkscape:connector-curvature="0"
         style="fill:#ffffff" /></g><g
       id="g52"
       style="fill:#ffffff"><path
         class="st0"
         d="m 48.7,38.9 -2.3,-1 c -0.5,-0.2 -1.1,0 -1.3,0.5 -0.2,0.5 0,1.1 0.5,1.3 l 2.3,1 c 0.5,0.2 1.1,0 1.3,-0.5 0.2,-0.5 0,-1.1 -0.5,-1.3 z"
         id="path54"
         inkscape:connector-curvature="0"
         style="fill:#ffffff" /></g><g
       id="g56"
       style="fill:#ffffff"><path
         class="st0"
         d="m 20.1,29.4 2.3,1 c 0.5,0.2 1.1,0 1.3,-0.5 0.2,-0.5 0,-1.1 -0.5,-1.3 l -2.3,-1 c -0.5,-0.2 -1.1,0 -1.3,0.5 -0.2,0.5 0,1.1 0.5,1.3 z"
         id="path58"
         inkscape:connector-curvature="0"
         style="fill:#ffffff" /></g><g
       id="g60"
       style="fill:#ffffff"><path
         class="st0"
         d="m 38.8,23.5 c 0.5,0.2 1.1,0 1.3,-0.5 l 1,-2.3 c 0.2,-0.5 0,-1.1 -0.5,-1.3 -0.5,-0.2 -1.1,0 -1.3,0.5 l -1,2.3 c -0.3,0.5 -0.1,1.1 0.5,1.3 z"
         id="path62"
         inkscape:connector-curvature="0"
         style="fill:#ffffff" /></g><g
       id="g64"
       style="fill:#ffffff"><path
         class="st0"
         d="m 28.7,23 c 0.2,0.5 0.8,0.8 1.3,0.5 0.5,-0.2 0.7,-0.8 0.5,-1.3 l -1,-2.3 c -0.2,-0.5 -0.8,-0.7 -1.3,-0.5 -0.5,0.2 -0.7,0.8 -0.5,1.3 z"
         id="path66"
         inkscape:connector-curvature="0"
         style="fill:#ffffff" /></g><g
       id="g68"
       style="fill:#ffffff"><path
         class="st0"
         d="m 22.5,38 -2.3,1 c -0.5,0.2 -0.7,0.8 -0.5,1.3 0.2,0.5 0.8,0.7 1.3,0.5 l 2.3,-1 C 23.8,39.6 24,39 23.8,38.5 23.6,38.1 23,37.8 22.5,38 Z"
         id="path70"
         inkscape:connector-curvature="0"
         style="fill:#ffffff" /></g><g
       id="g72"
       style="fill:#ffffff"><path
         class="st0"
         d="m 45,29.7 c 0.2,0.5 0.8,0.7 1.3,0.5 l 2.3,-1 c 0.5,-0.2 0.7,-0.8 0.5,-1.3 -0.2,-0.5 -0.8,-0.7 -1.3,-0.5 l -2.3,1 C 45,28.6 44.8,29.2 45,29.7 Z"
         id="path74"
         inkscape:connector-curvature="0"
         style="fill:#ffffff" /></g><g
       id="g76"
       style="fill:#ffffff"><path
         class="st0"
         d="m 33.8,22.9 c -5.3,0.3 -9.7,4.6 -10.1,10 -0.3,3.3 0.8,6.5 3.1,8.8 1.5,1.6 2.5,3.6 2.8,5.6 h -0.4 c -0.4,0 -0.8,0.2 -1.1,0.5 -0.3,0.3 -0.5,0.7 -0.5,1.1 v 3.6 c 0,0.9 0.7,1.6 1.6,1.6 0,0 0,0 0,0 h 2 v 0.7 h -0.8 c -0.6,0 -1,0.5 -1,1 0,0.6 0.5,1 1,1 0,0 0,0 0,0 h 0.9 c 0.3,1.2 1.4,2 2.6,2 0,0 0,0 0,0 h 1.4 c 1.3,0 2.3,-0.9 2.6,-2.1 h 0.9 c 0.6,0 1,-0.5 1,-1 0,-0.6 -0.5,-1 -1,-1 0,0 0,0 0,0 H 38 V 54 h 2 c 0.9,0 1.6,-0.7 1.6,-1.6 v -3.6 c 0,-0.9 -0.7,-1.6 -1.6,-1.6 h -0.4 c 0.3,-2.1 1.2,-4.1 2.8,-5.7 2,-2.1 3,-4.8 3,-7.7 C 45.2,27.6 40,22.5 33.8,22.9 Z m 2.1,33.2 c 0,0.4 -0.3,0.8 -0.7,0.8 h -1.4 v 0 c -0.4,0 -0.7,-0.4 -0.7,-0.8 v -1.9 c 1.7,0 1.1,0 2.8,0 z m -6.4,-3.9 v -2.8 c 0.2,0 9.9,0 10,-0.1 v 2.8 c -10,0.1 -4.1,0 -10,0.1 z m 11.3,-12 c -1.9,2 -3,4.5 -3.3,7.1 h -2 V 38.9 C 37,38.5 38,37.1 38,35.5 38,33.6 36.4,32 34.5,32 32.6,32 31,33.6 31,35.5 c 0,1.6 1.1,2.9 2.5,3.4 v 8.4 h -1.9 c -0.3,-2.6 -1.5,-5.1 -3.4,-7 -1.8,-1.9 -2.8,-4.5 -2.5,-7.2 0.4,-4.4 3.9,-8 8.3,-8.2 5.1,-0.3 9.3,3.9 9.4,9 -0.1,2.4 -1,4.6 -2.6,6.3 z m -6.4,-3.1 c -0.8,0 -1.5,-0.7 -1.5,-1.5 0,-0.8 0.7,-1.5 1.5,-1.5 0.8,0 1.5,0.7 1.5,1.5 0,0.8 -0.6,1.5 -1.5,1.5 z"
         id="path78"
         inkscape:connector-curvature="0"
         style="fill:#ffffff" /></g></g></svg>