<svg width='200' height='200' fill="#000000" xmlns:dc="http://purl.org/dc/elements/1.1/" xmlns:cc="http://creativecommons.org/ns#" xmlns:rdf="http://www.w3.org/1999/02/22-rdf-syntax-ns#" xmlns:svg="http://www.w3.org/2000/svg" xmlns="http://www.w3.org/2000/svg" xmlns:sodipodi="http://sodipodi.sourceforge.net/DTD/sodipodi-0.dtd" xmlns:inkscape="http://www.inkscape.org/namespaces/inkscape" version="1.1" x="0px" y="0px" viewBox="0 0 100 100"><g transform="translate(0,-952.36218)"><path style="text-indent:0;text-transform:none;direction:ltr;block-progression:tb;baseline-shift:baseline;color:#000000;enable-background:accumulate;" d="m 49.968753,960.36219 c -10.969469,0 -19.96875,8.5747 -19.96875,19.75 0,2.70575 0.658631,6.17486 1.5625,8.5625 5.516706,11.50481 11.081365,23.02561 16.625,34.53121 0.319804,0.6852 1.056349,1.1563 1.8125,1.1563 0.756151,0 1.492696,-0.4711 1.8125,-1.1563 5.47702,-11.5363 11.19461,-22.9868 16.625,-34.53121 0.91063,-2.3931 1.5625,-5.85836 1.5625,-8.5625 0,-11.18122 -9.06168,-19.75 -20.03125,-19.75 z m 0,4 c 8.91458,0 16.03125,6.69882 16.03125,15.75 0,1.92786 -0.67286,5.35263 -1.3125,7.0625 -4.84849,10.19468 -9.784835,20.38171 -14.6875,30.56251 -4.728806,-10.2582 -10.06912,-20.27013 -14.6875,-30.56251 -0.637945,-1.71387 -1.3125,-5.13822 -1.3125,-7.0625 0,-9.0571 7.054301,-15.75 15.96875,-15.75 z m 0.03125,4 c -6.603633,0 -12,5.39629 -12,12 0,6.60362 5.39634,11.99998 12,11.99998 6.603781,0 12,-5.3964 12,-11.99998 0,-6.60367 -5.396246,-12 -12,-12 z m 0,4 c 4.441966,0 8,3.55811 8,8 0,4.44176 -3.558061,8 -8,8 -4.44176,0 -8,-3.55828 -8,-8 0,-4.44185 3.558213,-8 8,-8 z m -36.000001,28.00001 c -1.130067,0 -1.615633,0.6214 -1.96875,1.6875 l -6.0000002,40 c -0.179488,1.1354 0.819229,2.3085 1.96875,2.3125 l 83.9999962,0 c 1.14952,0 2.14824,-1.1771 1.96875,-2.3125 l -5.999995,-40 c -0.147,-0.9288 -1.0284,-1.6843 -1.96875,-1.6875 l -18.6875,0 c -0.64666,1.3401 -1.31988,2.6621 -1.96875,4 l 18.9375,0 1.1875,8 -24,0 c -0.88543,1.8236 -1.77674,3.6463 -2.65625,5.4687 l 18.03125,22.5313 -29.875,0 -12.4375,-15.5625 7.09375,-6 c -0.592325,-1.2297 -1.188812,-2.4572 -1.78125,-3.6875 l -7.8125,6.5937 -13.875,-17.3437 16.53125,0 c -0.642425,-1.3359 -1.295627,-2.6643 -1.9375,-4 l -18.750001,0 z m 1.28125,6.8125 26.562501,33.1875 -31.531251,0 4.96875,-33.1875 z m 47.468751,9.1875 23.34375,0 1.5,10 -16.84375,0 -8,-10 z m 11.21875,14 14.21875,0 1.499995,10 -7.718745,0 -8,-10 z" fill="#ffffff" fill-opacity="1" fill-rule="nonzero" stroke="none" marker="none" visibility="visible" display="inline" overflow="visible"/></g></svg>