<?xml version="1.0" encoding="UTF-8" standalone="no"?>
<svg
   xmlns:dc="http://purl.org/dc/elements/1.1/"
   xmlns:cc="http://creativecommons.org/ns#"
   xmlns:rdf="http://www.w3.org/1999/02/22-rdf-syntax-ns#"
   xmlns:svg="http://www.w3.org/2000/svg"
   xmlns="http://www.w3.org/2000/svg"
   xmlns:sodipodi="http://sodipodi.sourceforge.net/DTD/sodipodi-0.dtd"
   xmlns:inkscape="http://www.inkscape.org/namespaces/inkscape"
   version="1.1"
   x="0px"
   y="0px"
   viewBox="0 0 100 125"
   enable-background="new 0 0 100 100"
   xml:space="preserve"
   id="svg3442"
   inkscape:version="0.91 r13725"
   sodipodi:docname="microphone.svg"><metadata
     id="metadata3508"><rdf:RDF><cc:Work
         rdf:about=""><dc:format>image/svg+xml</dc:format><dc:type
           rdf:resource="http://purl.org/dc/dcmitype/StillImage" /></cc:Work></rdf:RDF></metadata><defs
     id="defs3506" /><sodipodi:namedview
     pagecolor="#ffffff"
     bordercolor="#666666"
     borderopacity="1"
     objecttolerance="10"
     gridtolerance="10"
     guidetolerance="10"
     inkscape:pageopacity="0"
     inkscape:pageshadow="2"
     inkscape:window-width="1392"
     inkscape:window-height="731"
     id="namedview3504"
     showgrid="false"
     inkscape:zoom="2.616"
     inkscape:cx="0.97477073"
     inkscape:cy="62.5"
     inkscape:window-x="0"
     inkscape:window-y="0"
     inkscape:window-maximized="0"
     inkscape:current-layer="svg3442" /><g
     id="g3444"
     style="fill:#000000"
     transform="matrix(1.3291006,0,0,1.3291006,-13.997144,-3.5467728)"><path
       d="m 45.3,36.001 c 0,1.118 0.781,1.899 1.9,1.899 1.119,0 1.9,-0.781 1.9,-1.899 0,-1.119 -0.781,-1.9 -1.9,-1.9 -1.119,0 -1.9,0.781 -1.9,1.9 z"
       id="path3446"
       style="fill:#000000"
       inkscape:connector-curvature="0" /><path
       d="m 45.3,27.601 c 0,1.118 0.781,1.899 1.9,1.899 1.119,0 1.9,-0.781 1.9,-1.899 0,-1.119 -0.781,-1.9 -1.9,-1.9 -1.119,-0.001 -1.9,0.78 -1.9,1.9 z"
       id="path3448"
       style="fill:#000000"
       inkscape:connector-curvature="0" /><path
       d="m 51.9,48.601 c 0,-1.119 -0.781,-1.9 -1.9,-1.9 -1.119,0 -1.9,0.781 -1.9,1.9 0,1.119 0.781,1.9 1.9,1.9 1.119,0 1.9,-0.781 1.9,-1.9 z"
       id="path3450"
       style="fill:#000000"
       inkscape:connector-curvature="0" /><path
       d="m 50,21.5 c -1.119,0 -1.9,0.781 -1.9,1.9 0,1.119 0.781,1.9 1.9,1.9 1.119,0 1.9,-0.781 1.9,-1.9 0,-1.119 -0.781,-1.9 -1.9,-1.9 z"
       id="path3452"
       style="fill:#000000"
       inkscape:connector-curvature="0" /><path
       d="m 52.8,50.9 c -1.118,0 -1.899,0.781 -1.899,1.899 0,1.119 0.781,1.9 1.899,1.9 1.118,0 1.899,-0.781 1.899,-1.9 0,-1.117 -0.781,-1.899 -1.899,-1.899 z"
       id="path3454"
       style="fill:#000000"
       inkscape:connector-curvature="0" /><path
       d="m 45.3,44.4 c 0,1.118 0.781,1.899 1.9,1.899 1.119,0 1.9,-0.781 1.9,-1.899 0,-1.118 -0.781,-1.899 -1.9,-1.899 -1.119,0 -1.9,0.781 -1.9,1.899 z"
       id="path3456"
       style="fill:#000000"
       inkscape:connector-curvature="0" /><path
       d="m 54.699,36.001 c 0,-1.119 -0.781,-1.9 -1.899,-1.9 -1.118,0 -1.899,0.781 -1.899,1.9 0,1.118 0.781,1.899 1.899,1.899 1.118,0 1.899,-0.781 1.899,-1.899 z"
       id="path3458"
       style="fill:#000000"
       inkscape:connector-curvature="0" /><path
       d="m 48.1,40.2 c 0,1.119 0.781,1.9 1.9,1.9 1.119,0 1.9,-0.781 1.9,-1.9 0,-1.118 -0.781,-1.899 -1.9,-1.899 -1.119,0 -1.9,0.781 -1.9,1.899 z"
       id="path3460"
       style="fill:#000000"
       inkscape:connector-curvature="0" /><path
       d="m 54.699,27.601 c 0,-1.119 -0.781,-1.9 -1.899,-1.9 -1.118,0 -1.899,0.781 -1.899,1.9 0,1.118 0.781,1.899 1.899,1.899 1.118,0 1.899,-0.781 1.899,-1.899 z"
       id="path3462"
       style="fill:#000000"
       inkscape:connector-curvature="0" /><path
       d="m 51.9,31.801 c 0,-1.119 -0.781,-1.9 -1.9,-1.9 -1.119,0 -1.9,0.781 -1.9,1.9 0,1.118 0.781,1.899 1.9,1.899 1.119,0 1.9,-0.781 1.9,-1.899 z"
       id="path3464"
       style="fill:#000000"
       inkscape:connector-curvature="0" /><path
       d="m 47.2,50.9 c -1.119,0 -1.9,0.781 -1.9,1.899 0,1.119 0.781,1.9 1.9,1.9 1.119,0 1.9,-0.781 1.9,-1.9 0,-1.117 -0.781,-1.899 -1.9,-1.899 z"
       id="path3466"
       style="fill:#000000"
       inkscape:connector-curvature="0" /><path
       d="m 52.8,46.3 c 1.118,0 1.899,-0.781 1.899,-1.899 0,-1.118 -0.781,-1.899 -1.899,-1.899 -1.118,0 -1.9,0.78 -1.9,1.898 0,1.118 0.782,1.9 1.9,1.9 z"
       id="path3468"
       style="fill:#000000"
       inkscape:connector-curvature="0" /><path
       d="m 55.6,46.7 c -1.119,0 -1.9,0.781 -1.9,1.9 0,1.119 0.781,1.9 1.9,1.9 1.119,0 1.9,-0.781 1.9,-1.9 0,-1.119 -0.781,-1.9 -1.9,-1.9 z"
       id="path3470"
       style="fill:#000000"
       inkscape:connector-curvature="0" /><path
       d="m 44.4,42.101 c 1.119,0 1.9,-0.781 1.9,-1.9 0,-1.118 -0.781,-1.899 -1.9,-1.899 -1.119,0 -1.9,0.781 -1.9,1.899 0,1.118 0.781,1.9 1.9,1.9 z"
       id="path3472"
       style="fill:#000000"
       inkscape:connector-curvature="0" /><path
       d="m 44.4,16.9 c 1.119,0 1.9,-0.781 1.9,-1.9 0,-1.118 -0.781,-1.899 -1.9,-1.899 -1.119,0 -1.9,0.781 -1.9,1.899 0,1.119 0.781,1.9 1.9,1.9 z"
       id="path3474"
       style="fill:#000000"
       inkscape:connector-curvature="0" /><path
       d="m 44.4,25.301 c 1.119,0 1.9,-0.781 1.9,-1.9 0,-1.119 -0.781,-1.9 -1.9,-1.9 -1.119,0 -1.9,0.781 -1.9,1.9 0,1.119 0.781,1.9 1.9,1.9 z"
       id="path3476"
       style="fill:#000000"
       inkscape:connector-curvature="0" /><path
       d="m 44.4,50.501 c 1.119,0 1.9,-0.781 1.9,-1.9 0,-1.119 -0.781,-1.9 -1.9,-1.9 -1.119,0 -1.9,0.781 -1.9,1.9 0,1.119 0.781,1.9 1.9,1.9 z"
       id="path3478"
       style="fill:#000000"
       inkscape:connector-curvature="0" /><path
       d="m 44.4,33.7 c 1.119,0 1.9,-0.781 1.9,-1.899 0,-1.119 -0.781,-1.9 -1.9,-1.9 -1.119,0 -1.9,0.781 -1.9,1.9 0,1.118 0.781,1.899 1.9,1.899 z"
       id="path3480"
       style="fill:#000000"
       inkscape:connector-curvature="0" /><path
       d="m 50,61.7 c 7.995,0 14.5,-6.505 14.5,-14.5 l 0,-28 C 64.5,11.205 57.995,4.7 50,4.7 42.005,4.7 35.5,11.205 35.5,19.2 l 0,28 c 0,7.995 6.505,14.5 14.5,14.5 z M 50,8.5 c 5.9,0 10.699,4.801 10.699,10.7 l 0,28 C 60.699,53.1 55.9,57.9 50,57.9 44.1,57.9 39.3,53.1 39.3,47.2 l 0,-28 C 39.3,13.301 44.1,8.5 50,8.5 Z"
       id="path3482"
       style="fill:#000000"
       inkscape:connector-curvature="0" /><path
       d="m 75.699,47.2 0,-8.399 c 0,-1.819 -1.48,-3.3 -3.299,-3.3 l -2.8,0 c -1.119,0 -1.9,0.781 -1.9,1.899 0,1.119 0.781,1.9 1.9,1.9 l 2.3,0 0,7.9 C 71.9,59.276 62.076,69.1 50,69.1 37.924,69.1 28.1,59.276 28.1,47.2 l 0,-7.899 2.3,0 c 1.119,0 1.9,-0.781 1.9,-1.9 0,-1.118 -0.781,-1.899 -1.9,-1.899 l -2.8,0 c -1.819,0 -3.3,1.48 -3.3,3.3 l 0,8.398 c 0,11.678 8.219,22.142 19.6,25.032 l 0,5.269 -13.5,0 c -3.363,0 -6.1,2.736 -6.1,6.1 l 0,9.8 c 0,1.118 0.781,1.899 1.9,1.899 l 47.6,0 c 1.118,0 1.899,-0.781 1.899,-1.899 l 0,-9.8 c 0,-3.363 -2.736,-6.1 -6.1,-6.1 l -13.499,0 0,-5.269 C 67.48,69.342 75.699,58.878 75.699,47.2 Z M 47.7,77.501 l 0,-4.672 c 0.732,0.071 1.527,0.071 2.3,0.071 0.805,0 1.52,0 2.3,-0.076 l 0,4.677 -4.6,0 z m -19.6,6.1 c 0,-1.269 1.032,-2.301 2.3,-2.301 l 39.2,0 c 1.269,0 2.301,1.032 2.301,2.301 l 0,7.9 -43.801,0 0,-7.9 z"
       id="path3484"
       style="fill:#000000"
       inkscape:connector-curvature="0" /><path
       d="m 55.6,21.5 c -1.119,0 -1.9,0.781 -1.9,1.9 0,1.119 0.781,1.9 1.9,1.9 1.119,0 1.9,-0.781 1.9,-1.9 0,-1.119 -0.781,-1.9 -1.9,-1.9 z"
       id="path3486"
       style="fill:#000000"
       inkscape:connector-curvature="0" /><path
       d="m 55.6,16.9 c 1.119,0 1.9,-0.781 1.9,-1.9 0,-1.118 -0.781,-1.899 -1.9,-1.899 -1.119,0 -1.9,0.781 -1.9,1.899 -0.001,1.119 0.78,1.9 1.9,1.9 z"
       id="path3488"
       style="fill:#000000"
       inkscape:connector-curvature="0" /><path
       d="m 55.6,38.301 c -1.119,0 -1.9,0.781 -1.9,1.899 0,1.119 0.781,1.9 1.9,1.9 1.119,0 1.9,-0.781 1.9,-1.9 0,-1.118 -0.781,-1.899 -1.9,-1.899 z"
       id="path3490"
       style="fill:#000000"
       inkscape:connector-curvature="0" /><path
       d="m 45.3,19.2 c 0,1.119 0.781,1.9 1.9,1.9 1.119,0 1.9,-0.781 1.9,-1.9 0,-1.118 -0.781,-1.899 -1.9,-1.899 -1.119,0 -1.9,0.781 -1.9,1.899 z"
       id="path3492"
       style="fill:#000000"
       inkscape:connector-curvature="0" /><path
       d="m 55.6,29.9 c -1.119,0 -1.9,0.781 -1.9,1.9 0,1.118 0.781,1.899 1.9,1.899 1.119,0 1.9,-0.781 1.9,-1.899 0,-1.118 -0.781,-1.9 -1.9,-1.9 z"
       id="path3494"
       style="fill:#000000"
       inkscape:connector-curvature="0" /><path
       d="m 50.9,19.2 c 0,1.119 0.781,1.9 1.899,1.9 1.118,0 1.899,-0.781 1.899,-1.9 0,-1.118 -0.781,-1.899 -1.899,-1.899 -1.118,0 -1.899,0.781 -1.899,1.899 z"
       id="path3496"
       style="fill:#000000"
       inkscape:connector-curvature="0" /><path
       d="m 50,16.9 c 1.119,0 1.9,-0.781 1.9,-1.9 0,-1.118 -0.781,-1.899 -1.9,-1.899 -1.119,0 -1.9,0.781 -1.9,1.899 0,1.119 0.781,1.9 1.9,1.9 z"
       id="path3498"
       style="fill:#000000"
       inkscape:connector-curvature="0" /></g></svg>