<?xml version="1.0" encoding="UTF-8" standalone="no"?>
<!-- Generator: Adobe Illustrator 16.0.4, SVG Export Plug-In . SVG Version: 6.00 Build 0)  -->

<svg
   xmlns:dc="http://purl.org/dc/elements/1.1/"
   xmlns:cc="http://creativecommons.org/ns#"
   xmlns:rdf="http://www.w3.org/1999/02/22-rdf-syntax-ns#"
   xmlns:svg="http://www.w3.org/2000/svg"
   xmlns="http://www.w3.org/2000/svg"
   xmlns:xlink="http://www.w3.org/1999/xlink"
   xmlns:sodipodi="http://sodipodi.sourceforge.net/DTD/sodipodi-0.dtd"
   xmlns:inkscape="http://www.inkscape.org/namespaces/inkscape"
   version="1.1"
   id="Ebene_1"
   x="0px"
   y="0px"
   width="180"
   height="180"
   viewBox="0 0 180 180"
   enable-background="new 0 0 198.425 198.425"
   xml:space="preserve"
   sodipodi:docname="ChemnitzHackt2017_textpfade.svg"
   inkscape:version="0.92.2 5c3e80d, 2017-08-06"
   inkscape:export-filename="/home/tobias/Bilder/ChemnitzHackt2017.png"
   inkscape:export-xdpi="266.67001"
   inkscape:export-ydpi="266.67001"><metadata
     id="metadata171"><rdf:RDF><cc:Work
         rdf:about=""><dc:format>image/svg+xml</dc:format><dc:type
           rdf:resource="http://purl.org/dc/dcmitype/StillImage" /><dc:title></dc:title></cc:Work></rdf:RDF></metadata><defs
     id="defs169"><linearGradient
       inkscape:collect="always"
       id="linearGradient4790"><stop
         style="stop-color:#ff867f;stop-opacity:1"
         offset="0"
         id="stop4786" /><stop
         style="stop-color:#ff877f;stop-opacity:1"
         offset="1"
         id="stop4788" /></linearGradient><linearGradient
       inkscape:collect="always"
       xlink:href="#linearGradient4790"
       id="linearGradient4792"
       x1="34.950001"
       y1="115.925"
       x2="100.05"
       y2="115.925"
       gradientUnits="userSpaceOnUse"
       gradientTransform="translate(9.212502,9.212501)" /></defs><sodipodi:namedview
     pagecolor="#ffffff"
     bordercolor="#666666"
     borderopacity="1"
     objecttolerance="10"
     gridtolerance="10"
     guidetolerance="10"
     inkscape:pageopacity="0"
     inkscape:pageshadow="2"
     inkscape:window-width="2560"
     inkscape:window-height="1390"
     id="namedview167"
     showgrid="false"
     inkscape:snap-bbox="true"
     inkscape:bbox-paths="true"
     inkscape:bbox-nodes="true"
     inkscape:snap-bbox-edge-midpoints="true"
     inkscape:snap-bbox-midpoints="true"
     inkscape:snap-object-midpoints="true"
     inkscape:snap-center="true"
     inkscape:snap-midpoints="true"
     inkscape:snap-smooth-nodes="true"
     inkscape:object-paths="true"
     inkscape:snap-intersection-paths="true"
     inkscape:zoom="3.0414514"
     inkscape:cx="-60.925861"
     inkscape:cy="99.348972"
     inkscape:window-x="0"
     inkscape:window-y="25"
     inkscape:window-maximized="1"
     inkscape:current-layer="Ebene_1"
     inkscape:document-units="px"
     units="px"
     showguides="true"
     inkscape:guide-bbox="true"><inkscape:grid
       type="xygrid"
       id="grid3954" /><sodipodi:guide
       position="0,0"
       orientation="0,180"
       id="guide5612"
       inkscape:locked="false" /><sodipodi:guide
       position="180,0"
       orientation="-180,0"
       id="guide5614"
       inkscape:locked="false" /><sodipodi:guide
       position="180,180"
       orientation="0,-180"
       id="guide5616"
       inkscape:locked="false" /><sodipodi:guide
       position="0,180"
       orientation="180,0"
       id="guide5618"
       inkscape:locked="false" /><sodipodi:guide
       position="90,180"
       orientation="1,0"
       id="guide882"
       inkscape:locked="false" /><sodipodi:guide
       position="0,90"
       orientation="0,1"
       id="guide884"
       inkscape:locked="false"
       inkscape:label=""
       inkscape:color="rgb(0,0,255)" /></sodipodi:namedview><circle
     style="fill:#ffffff;fill-opacity:1;stroke:none;stroke-width:0.98018891;stroke-linecap:round;stroke-linejoin:round;stroke-miterlimit:9.86666679;stroke-dasharray:none;stroke-opacity:1"
     id="path886"
     cx="90"
     cy="90"
     r="89.509903" /><g
     id="g1921"
     transform="translate(-10.03483,13.075248)"><g
       transform="translate(-183.992,-30.4715)"
       id="g1864"><path
         id="path1335"
         d="m 293.639,53.334003 c -1.357,-1.623 -3.443,-2.938 -9.062,-2.938 h -0.254 c -5.617,0 -7.617,1.116 -8.977,2.74"
         stroke-miterlimit="10"
         inkscape:connector-curvature="0"
         style="fill:none;stroke:#ff867f;stroke-width:2;stroke-miterlimit:10;stroke-opacity:1" /><path
         id="path1337"
         d="m 281.417,57.907003 c 0,0 -3.11,-4.572 -5.28,-4.572 -4.545,0 -6.862,3.353 -6.862,3.353"
         stroke-miterlimit="10"
         inkscape:connector-curvature="0"
         style="fill:none;stroke:#ff867f;stroke-width:2;stroke-miterlimit:10;stroke-opacity:1" /><path
         id="path1339"
         d="m 276.54,57.988003 c 0,0 -6.227,-2.297 -8.632,-0.9 -1.862,1.081 -3.627,3.091 -3.627,3.091"
         stroke-miterlimit="10"
         inkscape:connector-curvature="0"
         style="fill:none;stroke:#ff867f;stroke-width:2;stroke-miterlimit:10;stroke-opacity:1" /><path
         id="path1341"
         d="m 268.805,60.039003 c 0,0 -14.755,-3.565 -34.024,25.231 0,0 4.438,9.635 12.125,14.832997 0,0 -6.003,8.418 1.436,24.096"
         stroke-miterlimit="10"
         inkscape:connector-curvature="0"
         style="fill:none;stroke:#ff867f;stroke-width:2;stroke-miterlimit:10;stroke-opacity:1" /><path
         id="path1343"
         d="m 274.266,84.232003 c 0,0.905 -0.719,1.672 -1.625,1.672 -0.906,0 -1.654,-0.767 -1.654,-1.672"
         stroke-miterlimit="10"
         inkscape:connector-curvature="0"
         style="fill:none;stroke:#ff867f;stroke-width:2;stroke-miterlimit:10;stroke-opacity:1" /><path
         id="path1345"
         d="m 265.618,87.760003 c 0,0 2.496,4.053 4.888,4.061 1.779,0.002 7.116,-4.784 9.036,-4.784"
         stroke-miterlimit="10"
         inkscape:connector-curvature="0"
         style="fill:none;stroke:#ff867f;stroke-width:2;stroke-miterlimit:10;stroke-opacity:1" /><path
         id="path1347"
         d="m 286.858,97.805003 c 1.578,0.342 2.133,-0.752 2.17,-2.018 0.027,-0.994 -1.756,-2.054 -3.045,-1.288 -0.897,0.533 -0.582,2.328 -2.488,2.328 -1.586,0 -1.586,-1.354 -1.586,-2.437 0,-1.199 -2.363,-2.87 -1.39,-6.009 l -0.703,-2.589 c -2.122,-0.837 -2.853,-2.264 -6.687,-2.483 -2.658,-0.151 -5.258,1.996 -5.546,2.285"
         stroke-miterlimit="10"
         inkscape:connector-curvature="0"
         style="fill:none;stroke:#ff867f;stroke-width:2;stroke-miterlimit:10;stroke-opacity:1" /><path
         id="path1349"
         d="m 280.294,97.869003 c -1.926,0.317 -2.156,-1.121 -2.195,-1.878 -0.035,-0.686 0.668,-1.491 1.776,-1.467 0.805,0.018 1.371,0.396 2.055,0.656"
         stroke-miterlimit="10"
         inkscape:connector-curvature="0"
         style="fill:none;stroke:#ff867f;stroke-width:2;stroke-miterlimit:10;stroke-opacity:1" /><path
         id="path1351"
         d="m 278.098,104.938 c -1.659,0.648 -5.932,6.351 -7.23,7.578 -1.301,1.227 -3.25,1.66 -3.754,0.648 -0.505,-1.011 0.433,-3.607 0,-4.33"
         stroke-miterlimit="10"
         inkscape:connector-curvature="0"
         style="fill:none;stroke:#ff867f;stroke-width:2;stroke-miterlimit:10;stroke-opacity:1" /><line
         id="line1353"
         y2="78.342003"
         x2="251.39799"
         y1="72.063004"
         x1="260.328"
         stroke-miterlimit="10"
         style="fill:none;stroke:#ff867f;stroke-width:2;stroke-miterlimit:10;stroke-opacity:1" /><line
         id="line1355"
         y2="71.737999"
         x2="253.29401"
         y1="67.504997"
         x1="261.28299"
         stroke-miterlimit="10"
         style="fill:none;stroke:#ff867f;stroke-width:2;stroke-miterlimit:10;stroke-opacity:1" /><line
         id="line1357"
         y2="100.102"
         x2="246.905"
         y1="85.305"
         x1="260.71399"
         stroke-miterlimit="10"
         style="fill:none;stroke:#ff867f;stroke-width:2;stroke-miterlimit:10;stroke-opacity:1" /><line
         id="line1359"
         y2="85.271004"
         x2="242.575"
         y1="89.209999"
         x1="236.442"
         stroke-miterlimit="10"
         style="fill:none;stroke:#ff867f;stroke-width:2;stroke-miterlimit:10;stroke-opacity:1" /><line
         id="line1361"
         y2="83.643997"
         x2="239.509"
         y1="86.374001"
         x1="235.336"
         stroke-miterlimit="10"
         style="fill:none;stroke:#ff867f;stroke-width:2;stroke-miterlimit:10;stroke-opacity:1" /><polyline
         id="polyline1363"
         points="58.662,96.371 70.381,88.642    76.503,88.318  "
         stroke-miterlimit="10"
         style="fill:none;stroke:#ff867f;stroke-width:2;stroke-miterlimit:10;stroke-opacity:1"
         transform="translate(184.78,-8.0279969)" /><line
         id="line1365"
         y2="103.584"
         x2="259.57599"
         y1="108.546"
         x1="258.306"
         stroke-miterlimit="10"
         style="fill:none;stroke:#ff867f;stroke-width:2;stroke-miterlimit:10;stroke-opacity:1" /><line
         id="line1367"
         y2="103.413"
         x2="256.97299"
         y1="109.845"
         x1="253.677"
         stroke-miterlimit="10"
         style="fill:none;stroke:#ff867f;stroke-width:2;stroke-miterlimit:10;stroke-opacity:1" /><line
         id="line1369"
         y2="102.916"
         x2="254.29401"
         y1="110.929"
         x1="248.435"
         stroke-miterlimit="10"
         style="fill:none;stroke:#ff867f;stroke-width:2;stroke-miterlimit:10;stroke-opacity:1" /><path
         id="path1371"
         d="m 286.569,57.907003 c 0,0 3.109,-4.572 5.279,-4.572 4.545,0 6.86,3.353 6.86,3.353"
         stroke-miterlimit="10"
         inkscape:connector-curvature="0"
         style="fill:none;stroke:#ff867f;stroke-width:2;stroke-miterlimit:10;stroke-opacity:1" /><path
         id="path1373"
         d="m 291.446,57.988003 c 0,0 6.227,-2.297 8.631,-0.9 1.863,1.081 3.627,3.091 3.627,3.091"
         stroke-miterlimit="10"
         inkscape:connector-curvature="0"
         style="fill:none;stroke:#ff867f;stroke-width:2;stroke-miterlimit:10;stroke-opacity:1" /><path
         id="path1375"
         d="m 299.179,60.039003 c 0,0 14.755,-3.565 34.024,25.231 0,0 -4.438,9.635 -12.125,14.832997 0,0 5.806,8.141 -1.078,23.322"
         stroke-miterlimit="10"
         inkscape:connector-curvature="0"
         style="fill:none;stroke:#ff867f;stroke-width:2;stroke-miterlimit:10;stroke-opacity:1" /><path
         id="path1377"
         d="m 300.585,113.165 2.704,0.908 c 2.017,-5.645 -1.211,-9.477 -1.211,-9.477 0,0 1.916,-2.621 2.22,-4.437 0.303,-1.812997 1.108,-3.527997 2.418,-6.148997 1.312,-2.621 -0.302,-13.812 -0.302,-13.812 2.822,-11.492 -1.512,-15.143 -1.512,-15.143 -7.057,-9.276 -21.069,-6.907 -21.069,-6.907 h -0.256 c 0,0 -14.013,-2.369 -21.07,6.907 0,0 -4.334,3.742 -1.512,15.233 0,0 -1.611,11.146 -0.301,13.767 1.309,2.621 2.116,4.313 2.418,6.128997 0.303,1.812 2.219,4.422 2.219,4.422 0,0 -3.226,3.828 -1.211,9.473 l 2.707,-0.911"
         stroke-miterlimit="10"
         inkscape:connector-curvature="0"
         style="fill:none;stroke:#ff867f;stroke-width:2;stroke-miterlimit:10;stroke-opacity:1" /><path
         id="path1379"
         d="m 302.367,104.597 c -1.897,-3.012 -9.074,-4.35 -10.156,-4.854997 -1.082,-0.505 -3.107,-2.284 -7.726,-1.952 l -1.566,-0.038 c -4.618,-0.332 -6.063,1.485 -7.145,1.99 -1.082,0.506997 -8.259,1.845997 -10.156,4.854997"
         stroke-miterlimit="10"
         inkscape:connector-curvature="0"
         style="fill:none;stroke:#ff867f;stroke-width:2;stroke-miterlimit:10;stroke-opacity:1" /><path
         id="path1381"
         d="m 302.892,84.405003 c -1.786,-2.706 -3.627,-4.006 -6.135,-4.366 -1.962,-0.282 -3.465,0.718 -6.136,1.439 -2.67,0.722 -4.163,0.919 -6.546,0.919 h -0.167 c -2.382,0 -3.876,-0.197 -6.546,-0.919 -2.67,-0.721 -4.173,-1.655 -6.135,-1.373 -2.508,0.361 -4.349,1.627 -6.135,4.333"
         stroke-miterlimit="10"
         inkscape:connector-curvature="0"
         style="fill:none;stroke:#ff867f;stroke-width:2;stroke-miterlimit:10;stroke-opacity:1" /><path
         id="path1383"
         d="m 293.128,84.264003 c 0,0.905 0.733,1.64 1.641,1.64 0.908,0 1.64,-0.735 1.64,-1.64"
         stroke-miterlimit="10"
         inkscape:connector-curvature="0"
         style="fill:none;stroke:#ff867f;stroke-width:2;stroke-miterlimit:10;stroke-opacity:1" /><path
         id="path1385"
         d="m 303.703,79.968003 c 0,0 -1.047,-5.974 -9.422,-5.435 -4.347,0.284 -7.588,0.864 -9.792,0.864 h -0.995 c -2.202,0 -5.445,-0.58 -9.792,-0.864 -8.374,-0.539 -9.422,5.468 -9.422,5.468"
         stroke-miterlimit="10"
         inkscape:connector-curvature="0"
         style="fill:none;stroke:#ff867f;stroke-width:2;stroke-miterlimit:10;stroke-opacity:1" /><path
         id="path1387"
         d="m 302.367,87.760003 c 0,0 -2.418,4.053 -4.812,4.061 -1.778,0.002 -7.772,-4.612 -9.772,-4.612 l 0.539,-1.415 c 2,-0.837 2.773,-2.264 6.61,-2.483 2.656,-0.151 5.218,1.996 5.507,2.285"
         stroke-miterlimit="10"
         inkscape:connector-curvature="0"
         style="fill:none;stroke:#ff867f;stroke-width:2;stroke-miterlimit:10;stroke-opacity:1" /><path
         id="path1389"
         d="m 289.887,104.938 c 1.658,0.648 5.932,6.351 7.23,7.578 1.3,1.227 3.248,1.66 3.754,0.648 0.505,-1.011 -0.434,-3.607 0,-4.33"
         stroke-miterlimit="10"
         inkscape:connector-curvature="0"
         style="fill:none;stroke:#ff867f;stroke-width:2;stroke-miterlimit:10;stroke-opacity:1" /><path
         id="path1391"
         d="m 292.214,106.923 c -1.998,2.922 -2.46,3.475 -7.442,3.475 h -1.557 c -4.983,0 -5.596,-0.553 -7.402,-2.967"
         stroke-miterlimit="10"
         inkscape:connector-curvature="0"
         style="fill:none;stroke:#ff867f;stroke-width:2;stroke-miterlimit:10;stroke-opacity:1" /><line
         id="line1393"
         y2="78.342003"
         x2="316.58701"
         y1="72.063004"
         x1="307.65601"
         stroke-miterlimit="10"
         style="fill:none;stroke:#ff867f;stroke-width:2;stroke-miterlimit:10;stroke-opacity:1" /><line
         id="line1395"
         y2="71.738998"
         x2="314.69202"
         y1="68.022003"
         x1="306.90601"
         stroke-miterlimit="10"
         style="fill:none;stroke:#ff867f;stroke-width:2;stroke-miterlimit:10;stroke-opacity:1" /><line
         id="line1397"
         y2="100.102"
         x2="321.078"
         y1="85.010002"
         x1="307.25201"
         stroke-miterlimit="10"
         style="fill:none;stroke:#ff867f;stroke-width:2;stroke-miterlimit:10;stroke-opacity:1" /><polyline
         id="polyline1399"
         points="118,156.425 118,132.845 109.705,127.425    88.721,127.425 80,132.935 80,155.425  "
         stroke-miterlimit="10"
         style="fill:none;stroke:#ff867f;stroke-width:2;stroke-miterlimit:10;stroke-opacity:1"
         transform="translate(184.78,-8.0279969)" /><line
         id="line1401"
         y2="85.271004"
         x2="325.41"
         y1="89.209999"
         x1="331.543"
         stroke-miterlimit="10"
         style="fill:none;stroke:#ff867f;stroke-width:2;stroke-miterlimit:10;stroke-opacity:1" /><line
         id="line1403"
         y2="83.643997"
         x2="328.47601"
         y1="86.374001"
         x1="332.64902"
         stroke-miterlimit="10"
         style="fill:none;stroke:#ff867f;stroke-width:2;stroke-miterlimit:10;stroke-opacity:1" /><polyline
         id="polyline1405"
         points="139.764,96.371 128.044,88.642    121.921,88.228  "
         stroke-miterlimit="10"
         style="fill:none;stroke:#ff867f;stroke-width:2;stroke-miterlimit:10;stroke-opacity:1"
         transform="translate(184.78,-8.0279969)" /><polyline
         id="polyline1407"
         points="109.705,127.425 102.957,122.425    99.8,122.425 98.933,122.425 95.469,122.425 88.721,127.425  "
         stroke-miterlimit="10"
         style="fill:none;stroke:#ff867f;stroke-width:2;stroke-miterlimit:10;stroke-opacity:1"
         transform="translate(184.78,-8.0279969)" /><line
         id="line1409"
         y2="103.584"
         x2="308.40799"
         y1="108.546"
         x1="309.67801"
         stroke-miterlimit="10"
         style="fill:none;stroke:#ff867f;stroke-width:2;stroke-miterlimit:10;stroke-opacity:1" /><line
         id="line1411"
         y2="103.413"
         x2="311.01102"
         y1="109.845"
         x1="314.30701"
         stroke-miterlimit="10"
         style="fill:none;stroke:#ff867f;stroke-width:2;stroke-miterlimit:10;stroke-opacity:1" /><line
         id="line1413"
         y2="102.916"
         x2="313.69"
         y1="110.929"
         x1="319.55099"
         stroke-miterlimit="10"
         style="fill:none;stroke:#ff867f;stroke-width:2;stroke-miterlimit:10;stroke-opacity:1" /><path
         id="path1415"
         d="m 290.838,101.651 c 0,0 0.374,3.541 -2.508,3.541 -2.412,0 -4.438,-2.492 -4.438,-2.492 0,0 -2.304,2.492 -4.337,2.492 -2.883,0 -2.508,-3.499 -2.508,-3.499"
         stroke-miterlimit="10"
         inkscape:connector-curvature="0"
         style="fill:none;stroke:#ff867f;stroke-width:2;stroke-miterlimit:10;stroke-opacity:1" /><polyline
         id="polyline1417"
         points="63.134,131.296 69.054,128.867    80.313,132.813  "
         stroke-miterlimit="10"
         style="fill:none;stroke:#ff867f;stroke-width:2;stroke-miterlimit:10;stroke-opacity:1"
         transform="translate(184.78,-8.0279969)" /><polyline
         id="polyline1419"
         points="136.298,131.296 128.955,128.867    117.695,132.813  "
         stroke-miterlimit="10"
         style="fill:none;stroke:#ff867f;stroke-width:2;stroke-miterlimit:10;stroke-opacity:1"
         transform="translate(184.78,-8.0279969)" /><line
         id="line1441"
         y2="138.397"
         x2="247.78"
         y1="123.397"
         x1="247.78"
         stroke-miterlimit="10"
         style="fill:none;stroke:#ff867f;stroke-width:2;stroke-miterlimit:10;stroke-opacity:1" /><line
         id="line1443"
         y2="138.397"
         x2="319.78"
         y1="123.397"
         x1="319.78"
         stroke-miterlimit="10"
         style="fill:none;stroke:#ff867f;stroke-width:2;stroke-miterlimit:10;stroke-opacity:1" /></g><path
       inkscape:connector-curvature="0"
       id="path4797"
       d="M 34,102.425 34.704367,100.27985 35,98.425 h 5 v 4 z"
       style="fill:#818181;fill-opacity:1;stroke:none;stroke-width:1px;stroke-linecap:butt;stroke-linejoin:miter;stroke-opacity:1" /><path
       sodipodi:nodetypes="sccccccs"
       inkscape:connector-curvature="0"
       id="path4795"
       d="m 35,100.425 c -1.786363,-0.17643 5,-2 5,-2 -7,-1 -14,-1 -20,-2 3,3.32292 8,7 10,9 -4,2 -7,4 -10,6 7,0 13.333333,1.33333 20,2 v -10 c 0,0 -3.526158,-2.85443 -5,-3 z"
       style="fill:#e87a73;fill-opacity:1;stroke:#ffffff;stroke-width:0.69999999;stroke-linecap:butt;stroke-linejoin:miter;stroke-miterlimit:4;stroke-dasharray:none;stroke-opacity:1" /><path
       style="fill:#818181;fill-opacity:1;stroke:none;stroke-width:1px;stroke-linecap:butt;stroke-linejoin:miter;stroke-opacity:1"
       d="m 166.06966,102.425 -0.70437,-2.14515 -0.29563,-1.85485 h -5 v 4 z"
       id="path4804"
       inkscape:connector-curvature="0" /><path
       style="fill:#e87a73;fill-opacity:1;stroke:#fefefe;stroke-width:0.69999999;stroke-linecap:butt;stroke-linejoin:miter;stroke-miterlimit:4;stroke-dasharray:none;stroke-opacity:1"
       d="m 165.06966,100.425 c 1.78636,-0.17643 -5,-2 -5,-2 7,-1 14,-1 20,-2 -3,3.32292 -8,7 -10,9 4,2 7,4 10,6 -7,0 -13.33333,1.33333 -20,2 v -10 c 0,0 3.52616,-2.85443 5,-3 z"
       id="path4806"
       inkscape:connector-curvature="0"
       sodipodi:nodetypes="sccccccs" /><path
       sodipodi:nodetypes="ccccccc"
       inkscape:connector-curvature="0"
       id="rect4784"
       d="m 100,118.425 c 24.94757,0 45.35833,-0.10784 65.31641,-3.08906 l 0.041,-15 C 143.13286,101.83635 120.19502,103.33787 100,103.425 81.026904,103.3944 58.017753,102.29129 34.677731,100.34492 l 0.07617,14.99102 c 23.353677,2.8656 46.25219,3.08321 65.246099,3.08906 z"
       style="fill:url(#linearGradient4792);fill-opacity:1;stroke:#fcfcfc;stroke-width:1;stroke-linecap:round;stroke-linejoin:round;stroke-miterlimit:4;stroke-dasharray:none;stroke-opacity:1" /><g
       aria-label="Chemnitz hackt 2017"
       transform="translate(-0.07385423,-0.25390728)"
       style="font-style:normal;font-weight:normal;font-size:40px;line-height:1.25;font-family:sans-serif;text-align:center;letter-spacing:0px;word-spacing:0px;text-anchor:middle;fill:#ffffff;fill-opacity:1;stroke:none"
       id="text4815"><path
         d="m 42.865717,112.61335 c -1.258482,-0.0618 -2.404587,-0.45457 -2.283255,-2.92359 0.121331,-2.46902 1.30042,-2.74749 2.558901,-2.68564 0.862959,0.0424 1.607446,0.29525 2.263322,0.63986 l 0.06597,-1.34238 c -0.704996,-0.323 -1.498604,-0.55423 -2.397519,-0.5984 -1.701946,-0.0836 -3.762252,0.52397 -3.928936,3.91588 -0.166683,3.3919 1.824122,4.19859 3.526068,4.28223 0.898915,0.0442 1.71137,-0.10814 2.444638,-0.36045 l 0.06597,-1.34238 c -0.686504,0.27864 -1.452195,0.45727 -2.315153,0.41487 z"
         style="font-style:normal;font-variant:normal;font-weight:bold;font-stretch:normal;font-size:12px;font-family:'Maven Pro';-inkscape-font-specification:'Maven Pro Bold';letter-spacing:0.34px;fill:#ffffff"
         id="path879" /><path
         d="m 49.880374,108.06279 c -0.46747,-0.0223 -0.866448,0.0308 -1.208348,0.14667 l 0.113626,-2.38529 -1.438369,-0.0685 -0.393409,8.25863 1.438369,0.0685 0.220401,-4.62675 c 0.244867,-0.0965 0.571925,-0.15296 0.967477,-0.13412 1.342478,0.064 1.435505,0.63302 1.410382,1.16042 l -0.177006,3.71579 1.426383,0.068 0.171296,-3.59593 c 0.07423,-1.55823 -0.864692,-2.528 -2.530802,-2.60737 z"
         style="font-style:normal;font-variant:normal;font-weight:bold;font-stretch:normal;font-size:12px;font-family:'Maven Pro';-inkscape-font-specification:'Maven Pro Bold';letter-spacing:0.34px;fill:#ffffff"
         id="path881" /><path
         d="m 56.988509,113.34283 c -0.695283,-0.0316 -1.431433,-0.22122 -1.463048,-1.37584 l 3.848029,0.17487 c 0.03487,-0.23866 0.04577,-0.47841 0.05775,-0.74214 0.0681,-1.49845 -0.671333,-2.93751 -2.541403,-3.02249 -1.953984,-0.0888 -2.735891,1.25709 -2.817064,3.04324 -0.115495,2.54138 1.457068,3.09334 2.643844,3.14728 0.95901,0.0436 1.713138,-0.1624 2.278189,-0.43703 l 0.05284,-1.1628 c -0.514376,0.21687 -1.208022,0.41359 -2.059143,0.37491 z m -0.152059,-3.79081 c 0.767208,0.0349 1.106137,0.77101 1.143742,1.5295 l -2.409513,-0.1095 c 0.132399,-1.06309 0.558501,-1.45215 1.265771,-1.42 z"
         style="font-style:normal;font-variant:normal;font-weight:bold;font-stretch:normal;font-size:12px;font-family:'Maven Pro';-inkscape-font-specification:'Maven Pro Bold';letter-spacing:0.34px;fill:#ffffff"
         id="path883" /><path
         d="m 67.730114,108.85503 c -0.911234,-0.0374 -1.688914,0.18295 -2.176377,0.35512 -0.407848,-0.30496 -0.941003,-0.48296 -1.600449,-0.51 -1.450781,-0.0595 -2.616373,0.54126 -2.665316,0.56327 l -0.221738,5.40746 1.438791,0.059 0.194205,-4.73602 c 0.302207,-0.0477 0.639399,-0.0699 0.999097,-0.0551 1.115063,0.0457 1.32468,0.49869 1.297639,1.15814 l -0.152906,3.72886 1.426801,0.0585 0.147498,-3.59698 c 0.03392,-0.8273 -0.206064,-1.12539 -0.206064,-1.12539 0.351149,-0.0697 0.773255,-0.11241 1.228872,-0.0937 1.139042,0.0467 1.347676,0.52366 1.31916,1.21908 l -0.151431,3.69289 1.438791,0.059 0.147498,-3.59698 c 0.06391,-1.55869 -0.857421,-2.52124 -2.464071,-2.58712 z"
         style="font-style:normal;font-variant:normal;font-weight:bold;font-stretch:normal;font-size:12px;font-family:'Maven Pro';-inkscape-font-specification:'Maven Pro Bold';letter-spacing:0.34px;fill:#ffffff"
         id="path885" /><path
         d="m 75.148569,109.12894 c -1.523117,-0.0519 -2.720084,0.54373 -2.768873,0.56608 l -0.184624,5.42086 1.439166,0.049 0.160116,-4.70127 c 0.325854,-0.0489 0.711266,-0.0838 1.119029,-0.07 1.307242,0.0445 1.395982,0.61187 1.37801,1.13956 l -0.126622,3.71785 1.427172,0.0486 0.122538,-3.59791 c 0.0531,-1.5591 -0.898879,-2.51606 -2.565912,-2.57283 z"
         style="font-style:normal;font-variant:normal;font-weight:bold;font-stretch:normal;font-size:12px;font-family:'Maven Pro';-inkscape-font-specification:'Maven Pro Bold';letter-spacing:0.34px;fill:#ffffff"
         id="path887" /><path
         d="m 81.233942,115.40368 0.169302,-5.9856 -1.439424,-0.0407 -0.169303,5.98561 z m 0.204369,-6.80094 0.03732,-1.31947 -1.47541,-0.0417 -0.03732,1.31947 z"
         style="font-style:normal;font-variant:normal;font-weight:bold;font-stretch:normal;font-size:12px;font-family:'Maven Pro';-inkscape-font-specification:'Maven Pro Bold';letter-spacing:0.34px;fill:#ffffff"
         id="path889" /><path
         d="m 86.874853,110.78753 0.02818,-1.23567 -1.415632,-0.0323 0.04049,-1.77554 -1.439626,-0.0328 -0.04049,1.77554 -1.007738,-0.023 -0.02818,1.23568 1.007738,0.023 -0.06538,2.86725 c -0.02818,1.23568 0.674676,1.9959 1.862368,2.02298 0.347909,0.008 0.661196,-0.0449 0.951857,-0.15834 l 0.02708,-1.18769 c -0.193865,0.0796 -0.410903,0.12267 -0.686832,0.11637 -0.527862,-0.012 -0.7288,-0.14865 -0.716764,-0.67651 l 0.0673,-2.95123 z"
         style="font-style:normal;font-variant:normal;font-weight:bold;font-stretch:normal;font-size:12px;font-family:'Maven Pro';-inkscape-font-specification:'Maven Pro Bold';letter-spacing:0.34px;fill:#ffffff"
         id="path891" /><path
         d="m 92.827904,110.98072 0.0199,-1.33185 -4.547492,-0.068 -0.01955,1.30785 2.699699,0.0403 -2.809542,3.29438 -0.02008,1.34385 4.607485,0.0689 0.01955,-1.30785 -2.795688,-0.0418 z"
         style="font-style:normal;font-variant:normal;font-weight:bold;font-stretch:normal;font-size:12px;font-family:'Maven Pro';-inkscape-font-specification:'Maven Pro Bold';letter-spacing:0.34px;fill:#ffffff"
         id="path893" /><path
         d="m 101.95106,109.58791 c -0.468,0.001 -0.86379,0.0744 -1.19942,0.20739 l -0.007,-2.38799 -1.439999,0.004 0.02335,8.26797 1.439995,-0.004 -0.0131,-4.63198 c 0.23969,-0.10868 0.56348,-0.18159 0.95948,-0.18271 1.344,-0.004 1.46559,0.55986 1.46708,1.08786 l 0.0105,3.71999 1.42799,-0.004 -0.0102,-3.59998 c -0.004,-1.56 -0.99102,-2.48121 -2.65901,-2.4765 z"
         style="font-style:normal;font-variant:normal;font-weight:bold;font-stretch:normal;font-size:12px;font-family:'Maven Pro';-inkscape-font-specification:'Maven Pro Bold';letter-spacing:0.34px;fill:#ffffff"
         id="path895" /><path
         d="m 108.6493,109.53012 c -0.71993,0.01 -1.33003,0.15052 -1.83114,0.36152 l 0.0162,1.16389 c 0.44145,-0.18617 1.02772,-0.31434 1.74765,-0.32436 0.93591,-0.013 1.27856,0.46225 1.28758,1.11019 -0.32464,-0.0435 -0.68511,-0.0745 -1.05707,-0.0693 -2.39977,0.0334 -2.55971,1.47576 -2.55353,1.91972 0.0139,0.9959 0.70049,2.04245 2.59631,2.01606 1.85982,-0.0259 2.50522,-1.07897 2.4917,-2.05087 l -0.0225,-1.61985 c -0.0229,-1.64384 -0.97131,-2.53072 -2.67515,-2.50701 z m 1.2555,3.97891 c 0.008,0.55195 -0.27528,0.91592 -1.0792,0.92711 -0.75593,0.0105 -1.13257,-0.32027 -1.14125,-0.94421 -0.007,-0.49195 0.3731,-0.78527 1.34501,-0.79879 0.32397,-0.005 0.61244,0.0275 0.86492,0.06 z"
         style="font-style:normal;font-variant:normal;font-weight:bold;font-stretch:normal;font-size:12px;font-family:'Maven Pro';-inkscape-font-specification:'Maven Pro Bold';letter-spacing:0.34px;fill:#ffffff"
         id="path897" /><path
         d="m 114.34418,112.52415 c -0.0352,-1.5476 0.58182,-1.8617 1.58956,-1.88462 0.55186,-0.0125 1.04619,0.0842 1.49416,0.2541 l -0.0273,-1.19969 c -0.5205,-0.19222 -1.09936,-0.31109 -1.73519,-0.29663 -1.82353,0.0415 -2.80617,1.1681 -2.76088,3.15958 0.0453,1.99149 1.07785,3.06029 2.90138,3.01882 0.63584,-0.0145 1.20869,-0.15952 1.71992,-0.3752 l -0.0273,-1.19969 c -0.43979,0.19005 -0.92893,0.3212 -1.48079,0.33375 -1.00774,0.0229 -1.63867,-0.27481 -1.67359,-1.81042 z"
         style="font-style:normal;font-variant:normal;font-weight:bold;font-stretch:normal;font-size:12px;font-family:'Maven Pro';-inkscape-font-specification:'Maven Pro Bold';letter-spacing:0.34px;fill:#ffffff"
         id="path899" /><path
         d="m 124.83694,115.22217 -2.98023,-3.23444 2.52137,-2.74233 -1.9071,0.0583 -1.94796,2.25658 -0.13568,-4.43792 -1.43932,0.044 0.25155,8.22816 1.43933,-0.044 -0.0598,-1.95508 0.38335,-0.41991 2.05131,2.30239 z"
         style="font-style:normal;font-variant:normal;font-weight:bold;font-stretch:normal;font-size:12px;font-family:'Maven Pro';-inkscape-font-specification:'Maven Pro Bold';letter-spacing:0.34px;fill:#ffffff"
         id="path901" /><path
         d="m 129.61473,110.29166 -0.045,-1.23518 -1.41506,0.0516 -0.0647,-1.77482 -1.43904,0.0524 0.0647,1.77482 -1.00734,0.0367 0.045,1.23518 1.00733,-0.0367 0.10447,2.8661 c 0.045,1.23518 0.79164,1.95246 1.97885,1.90919 0.34777,-0.0127 0.65738,-0.084 0.94081,-0.21441 l -0.0433,-1.18721 c -0.18881,0.0909 -0.40292,0.14677 -0.67874,0.15682 -0.52765,0.0192 -0.73632,-0.10525 -0.75555,-0.6329 l -0.10752,-2.95004 z"
         style="font-style:normal;font-variant:normal;font-weight:bold;font-stretch:normal;font-size:12px;font-family:'Maven Pro';-inkscape-font-specification:'Maven Pro Bold';letter-spacing:0.34px;fill:#ffffff"
         id="path903" /><path
         d="m 138.26962,113.26445 c 1.24819,-1.13492 2.65239,-2.82909 2.58456,-4.39963 -0.0497,-1.15093 -0.83488,-2.36618 -2.88497,-2.27763 -0.92314,0.0399 -1.71138,0.42224 -2.28329,0.80728 l 0.0616,1.42667 c 0.53491,-0.40746 1.42061,-0.75801 2.22386,-0.7927 1.09098,-0.0471 1.43591,0.43044 1.45611,0.898 0.0642,1.48661 -2.32583,3.71582 -3.54478,4.69333 l 0.0507,1.17491 5.28707,-0.22836 -0.0616,-1.42667 z"
         style="font-style:normal;font-variant:normal;font-weight:bold;font-stretch:normal;font-family:'Maven Pro';-inkscape-font-specification:'Maven Pro Bold';letter-spacing:0px"
         id="path905" /><path
         d="m 145.41302,106.28962 c -2.08578,0.0962 -3.08907,1.52394 -2.96356,4.24505 0.1255,2.72111 1.25595,4.05044 3.34173,3.95423 2.09777,-0.0968 3.08907,-1.52394 2.96356,-4.24505 -0.1255,-2.7211 -1.24396,-4.05098 -3.34173,-3.95423 z m 0.32233,6.98857 c -0.80315,0.037 -1.72911,-0.24459 -1.84742,-2.80986 -0.11777,-2.55329 0.77778,-2.93095 1.58093,-2.968 0.80315,-0.037 1.72966,0.25658 1.84742,2.80987 0.11832,2.56527 -0.77778,2.93095 -1.58093,2.96799 z"
         style="font-style:normal;font-variant:normal;font-weight:bold;font-stretch:normal;font-family:'Maven Pro';-inkscape-font-specification:'Maven Pro Bold';letter-spacing:0px"
         id="path907" /><path
         d="m 151.6008,106.0698 -1.51106,1.05763 0.0736,1.53423 1.38438,-0.94342 0.30477,6.35269 1.43835,-0.069 -0.38356,-7.99481 z"
         style="font-style:normal;font-variant:normal;font-weight:bold;font-stretch:normal;font-family:'Maven Pro';-inkscape-font-specification:'Maven Pro Bold';letter-spacing:0px"
         id="path909" /><path
         d="m 155.1692,105.89777 0.0707,1.43826 3.83536,-0.18858 -2.8658,6.71284 1.70195,-0.0837 2.95893,-7.01777 -0.056,-1.13863 z"
         style="font-style:normal;font-variant:normal;font-weight:bold;font-stretch:normal;font-family:'Maven Pro';-inkscape-font-specification:'Maven Pro Bold';letter-spacing:0px"
         id="path911" /></g><path
       sodipodi:nodetypes="cc"
       inkscape:connector-curvature="0"
       id="path4820"
       d="m 35,113.425 c 60,3 70,3 130,0"
       style="fill:none;stroke:none;stroke-width:1px;stroke-linecap:butt;stroke-linejoin:miter;stroke-opacity:1" /></g></svg>