<svg fill="#000000" xmlns="http://www.w3.org/2000/svg" xmlns:xlink="http://www.w3.org/1999/xlink" version="1.1" x="0px" y="0px" viewBox="0 0 65 65" enable-background="new 0 0 65 65" xml:space="preserve"><g><rect x="31.8" y="22.6" width="1.5" height="4.8"/><rect x="20.6" y="26.8" transform="matrix(-0.5 -0.866 0.866 -0.5 10.5951 61.1909)" width="4.8" height="1.5"/><rect x="13.6" y="33.8" transform="matrix(-0.866 -0.5 0.5 -0.866 12.5601 72.404)" width="4.8" height="1.5"/><rect x="11" y="43.3" width="4.8" height="1.5"/><rect x="15.2" y="51.2" transform="matrix(-0.5 -0.866 0.866 -0.5 -22.4438 94.2338)" width="1.5" height="4.8"/><rect x="46.6" y="52.8" transform="matrix(-0.866 -0.5 0.5 -0.866 64.6774 124.5206)" width="4.8" height="1.5"/><rect x="49.2" y="43.3" width="4.8" height="1.5"/><rect x="48.3" y="32.1" transform="matrix(0.5 0.866 -0.866 0.5 54.4023 -25.1937)" width="1.5" height="4.8"/><rect x="41.3" y="25.2" transform="matrix(-0.866 -0.5 0.5 -0.866 64.6727 72.4046)" width="1.5" height="4.8"/><path d="M61.5,3.7h-58c-2.1,0-3.8,1.7-3.8,3.7v50.2c0,2.1,1.7,3.8,3.8,3.8h20.6H41h20.5c2.1,0,3.8-1.7,3.8-3.8V7.4   C65.3,5.3,63.6,3.7,61.5,3.7z M3.5,5.2h58c1.2,0,2.3,1,2.3,2.3v4.2H1.3V7.4C1.3,6.2,2.3,5.2,3.5,5.2z M30.9,56.6   c0.5,0.1,1.1,0.1,1.6,0.1c0.6,0,1.1,0,1.6-0.1c0,0.8,0,1.7,0,2.5c0,0.3,0,0.6,0,0.8h-3.2c0-0.3,0-0.5,0-0.8   C30.9,58.2,30.9,57.4,30.9,56.6z M35.6,59.8c0-0.3,0-0.6,0-0.8c0-0.9,0-1.8,0-2.7c1.5-0.3,2.7-0.9,3.5-1.7l0,0   c0.1-0.1,0.2-0.2,0.3-0.4c0.3-0.4,0.5-0.8,0.5-1.3h0c0-0.4-0.1-0.8-0.2-1.1c-0.4-0.9-1.4-1.4-2.4-1.4c-0.5,0-1.9,0.3-2.5,2.3   c-0.2,0.7-0.4,1.4-0.4,2.1c-0.5,0.1-1.1,0.1-1.7,0.1s-1.2,0-1.7-0.1c-0.1-0.8-0.2-1.5-0.4-2.1c-0.7-2-2-2.3-2.5-2.3   c-1-0.1-1.9,0.5-2.4,1.4c-0.2,0.4-0.3,0.7-0.2,1.1h0c0,0.5,0.2,0.9,0.4,1.3c0.1,0.1,0.2,0.3,0.3,0.4l0,0c0.7,0.7,1.9,1.3,3.5,1.7   c0,0.9,0,1.8,0,2.7c0,0.3,0,0.6,0,0.8h-4.2c-0.9-2.8-2-5.4-3.4-7.8L21.7,52l0,0c-0.2-0.3-0.3-0.6-0.5-0.9L20,48.7   c-0.5-1.4-0.7-2.9-0.7-4.4c0-7.6,6.4-13.7,14.1-13.2c6.7,0.4,11.9,5.8,12.3,12.5c0.1,2.5-0.5,5-1.6,7.1L44,50.8   c-0.1,0.2-0.2,0.4-0.4,0.6c-1.5,2.6-2.8,5.4-3.8,8.4H35.6z M38.1,53.5c-0.4,0.4-1.2,0.9-2.4,1.2c0.1-0.5,0.2-1,0.3-1.4   c0.3-0.8,0.7-1.3,1.2-1.3c0.4,0,0.8,0.2,0.9,0.5C38.4,52.9,38.3,53.2,38.1,53.5z M26.9,53.5c-0.2-0.3-0.2-0.6-0.1-0.9   c0.2-0.3,0.5-0.6,0.9-0.5c0.5,0,1,0.5,1.2,1.3c0.1,0.4,0.2,0.9,0.3,1.4C28,54.4,27.2,53.9,26.9,53.5z M61.5,59.8h-20   c0.9-2.7,2.1-5.3,3.5-7.7c0.1-0.2,0.2-0.4,0.4-0.6c1.4-2.4,2-5.2,1.9-8c-0.4-7.4-6.3-13.4-13.7-13.9c-8.6-0.6-15.7,6.2-15.7,14.7   c0,1.7,0.3,3.3,0.9,4.9l1.3,2.6c0.2,0.3,0.4,0.6,0.6,1l0,0.1c1.2,2.2,2.2,4.5,3.1,7H3.5c-1.2,0-2.3-1-2.3-2.3V13.1h62.5v44.4   C63.8,58.8,62.7,59.8,61.5,59.8z"/><rect x="58.7" y="7.7" width="1.5" height="1.5"/><rect x="54.9" y="7.7" width="1.5" height="1.5"/><rect x="51.1" y="7.7" width="1.5" height="1.5"/><path d="M5.7,9.2H46c0.4,0,0.8-0.3,0.8-0.8c0-0.4-0.3-0.7-0.8-0.7H5.7C5.3,7.7,4.9,8,4.9,8.4C4.9,8.9,5.3,9.2,5.7,9.2z"/></g></svg>