<?xml version="1.0" encoding="UTF-8" standalone="no"?>
<svg
   xmlns:dc="http://purl.org/dc/elements/1.1/"
   xmlns:cc="http://creativecommons.org/ns#"
   xmlns:rdf="http://www.w3.org/1999/02/22-rdf-syntax-ns#"
   xmlns:svg="http://www.w3.org/2000/svg"
   xmlns="http://www.w3.org/2000/svg"
   xmlns:sodipodi="http://sodipodi.sourceforge.net/DTD/sodipodi-0.dtd"
   xmlns:inkscape="http://www.inkscape.org/namespaces/inkscape"
   version="1.1"
   x="0px"
   y="0px"
   viewBox="0 0 200 200"
   enable-background="new 0 0 105 105"
   xml:space="preserve"
   id="svg8"
   sodipodi:docname="judge.svg"
   width="200"
   height="200"
   inkscape:version="0.92.2 5c3e80d, 2017-08-06"><metadata
     id="metadata14"><rdf:RDF><cc:Work
         rdf:about=""><dc:format>image/svg+xml</dc:format><dc:type
           rdf:resource="http://purl.org/dc/dcmitype/StillImage" /><dc:title></dc:title></cc:Work></rdf:RDF></metadata><defs
     id="defs12" /><sodipodi:namedview
     pagecolor="#ffffff"
     bordercolor="#666666"
     borderopacity="1"
     objecttolerance="10"
     gridtolerance="10"
     guidetolerance="10"
     inkscape:pageopacity="0"
     inkscape:pageshadow="2"
     inkscape:window-width="1194"
     inkscape:window-height="689"
     id="namedview10"
     showgrid="false"
     inkscape:zoom="1.7980952"
     inkscape:cx="189.86758"
     inkscape:cy="65.625"
     inkscape:window-x="0"
     inkscape:window-y="0"
     inkscape:window-maximized="0"
     inkscape:current-layer="svg8" /><path
     d="m 33.637422,129.46675 c -0.06892,1.43547 -1.252466,2.55485 -2.676048,2.55485 -0.0404,0 -0.08318,-0.002 -0.125959,-0.002 -12.246596,-0.57275 -17.078215,-10.236 -17.277849,-10.64715 -0.648811,-1.33327 -0.09268,-2.93509 1.238206,-3.58153 1.33327,-0.64643 2.927966,-0.0951 3.576777,1.22871 0.171114,0.33985 3.75502,7.22721 12.714786,7.64788 1.475865,0.069 2.616632,1.32138 2.550087,2.79963 z M 199.00808,110.52291 c 0,17.63908 -14.35226,31.98898 -31.98898,31.98898 -17.63672,0 -31.98898,-14.35226 -31.98898,-31.98898 0,-1.48062 1.20018,-2.68081 2.6808,-2.68081 h 5.29267 l 20.35555,-58.497517 h -54.69972 l 1.60657,113.280427 h 7.36506 c 1.48063,0 2.68081,1.20019 2.68081,2.68081 v 9.19741 h 36.42609 c 1.48062,0 2.68079,1.20019 2.68079,2.68081 v 14.03854 c 0,1.48062 -1.20017,2.68081 -2.68079,2.68081 H 42.423695 c -1.480619,0 -2.680799,-1.20019 -2.680799,-2.68081 v -14.03854 c 0,-1.48062 1.20018,-2.68081 2.680799,-2.68081 h 36.426082 v -9.19741 c 0,-1.48062 1.200181,-2.68081 2.680799,-2.68081 h 7.365071 L 90.502224,49.344583 H 36.44418 l 20.360295,58.499897 h 5.292679 c 1.480619,0 2.6808,1.20018 2.6808,2.6808 0,17.6391 -14.352261,31.98898 -31.988977,31.98898 C 15.152261,142.51426 0.8,128.16199 0.8,110.52528 c 0,-1.48062 1.2001807,-2.6808 2.6807993,-2.6808 H 8.7734785 L 29.133773,49.344583 h -8.750625 c -1.480619,0 -2.6808,-1.200182 -2.6808,-2.680802 v -9.87 c 0,-1.480619 1.200181,-2.680801 2.6808,-2.680801 h 70.323464 l 0.09506,-6.530884 c -2.507309,-2.728332 -3.926137,-6.483354 -3.926137,-10.49267 0,-7.9996206 5.701453,-14.5067396 12.707659,-14.5067396 7.006206,0 12.707656,6.507119 12.707656,14.5067396 0,4.011693 -1.41882,7.766715 -3.92614,10.49267 l 0.0951,6.530884 h 70.32347 c 1.48062,0 2.68081,1.200182 2.68081,2.680801 v 9.87 c 0,1.48062 -1.20019,2.680802 -2.68081,2.680802 h -8.10656 l 20.36029,58.499897 h 5.29268 c 1.47824,0 2.67842,1.20018 2.67842,2.67843 z m -139.727192,2.6808 H 6.2899352 c 1.3475299,13.43013 12.7171638,23.94895 26.4966648,23.94895 13.779502,0 25.146759,-10.51882 26.494288,-23.94895 z M 51.126789,107.84448 32.7866,55.143475 14.444035,107.84448 Z M 154.05476,179.86484 H 45.104496 v 8.67931 H 154.05476 c 0,0 0,-8.67931 0,-8.67931 z M 114.94788,167.98661 H 84.211377 v 6.51662 H 114.94788 Z M 176.10245,43.982982 v -4.508401 h -70.28782 c -1.46636,0 -2.65941,-1.176416 -2.67842,-2.640398 l -0.14972,-10.307296 c -0.0119,-0.772393 0.31133,-1.513891 0.88409,-2.029613 1.91316,-1.727784 3.0563,-4.496519 3.0563,-7.407848 0,-5.043136 -3.29396,-9.1451393 -7.346062,-9.1451393 -4.052089,0 -7.348431,4.1020033 -7.348431,9.1451393 0,2.911329 1.143142,5.680064 3.056305,7.407848 0.572759,0.515722 0.895975,1.25722 0.884089,2.029613 l -0.149722,10.307296 c -0.02142,1.463982 -1.214442,2.640398 -2.678429,2.640398 H 23.059194 v 4.508401 h 70.159475 c 0.717733,0 1.404569,0.287568 1.908415,0.798536 0.503836,0.510969 0.781899,1.202557 0.770013,1.92029 L 94.252491,162.62501 h 10.654279 l -1.6446,-115.923202 c -0.0119,-0.717733 0.26618,-1.409321 0.77001,-1.92029 0.50384,-0.510968 1.19067,-0.798536 1.90841,-0.798536 z m -27.42591,63.861498 h 36.68275 L 167.0191,55.141099 Z m 44.83684,5.35923 h -52.99095 c 1.34753,13.43013 12.71717,23.94895 26.49667,23.94895 13.7795,0 25.14675,-10.51882 26.49428,-23.94895 z m -28.19592,13.46103 c -8.95977,-0.42066 -12.54368,-7.30565 -12.71479,-7.64788 -0.64882,-1.32376 -2.2435,-1.87513 -3.57678,-1.2287 -1.3309,0.64643 -1.88463,2.25064 -1.2382,3.58153 0.19962,0.41115 5.03363,10.07439 17.27785,10.64715 0.0428,0.002 0.0856,0.002 0.12595,0.002 1.42359,0 2.60713,-1.11938 2.67605,-2.55485 0.069,-1.47586 -1.07184,-2.72831 -2.55008,-2.79963 z"
     id="path2"
     style="fill:#ffffff;stroke-width:2.3765955"
     inkscape:connector-curvature="0" /></svg>